<?xml version="1.0" standalone="no"?>
<!DOCTYPE svg PUBLIC "-//W3C//DTD SVG 20010904//EN"
 "http://www.w3.org/TR/2001/REC-SVG-20010904/DTD/svg10.dtd">
<svg version="1.0" xmlns="http://www.w3.org/2000/svg"
 width="32" height="32" viewBox="0 0 870.000000 874.000000"
 preserveAspectRatio="xMidYMid meet">

<g transform="translate(0.000000,874.000000) scale(0.100000,-0.100000)"
fill="#000000" stroke="none">
<path d="M3980 8653 c-555 -38 -1043 -167 -1525 -403 -328 -161 -599 -340
-885 -585 -25 -22 -118 -112 -206 -201 -448 -451 -760 -960 -963 -1569 -55
-168 -122 -430 -137 -537 -8 -57 -41 -46 296 -94 140 -19 286 -40 323 -45 38
-6 73 -9 79 -7 6 2 26 71 44 153 58 260 124 453 235 684 124 259 286 521 321
521 5 0 6 -35 2 -77 -6 -82 9 -313 25 -385 32 -140 46 -190 73 -267 35 -101
110 -269 144 -323 13 -20 24 -42 24 -48 0 -12 215 -319 238 -340 9 -8 35 -38
56 -65 78 -98 361 -388 505 -515 46 -41 91 -83 100 -93 9 -10 52 -49 96 -85
44 -37 85 -72 90 -78 6 -5 39 -35 75 -65 77 -64 272 -234 424 -368 60 -53 186
-172 279 -264 129 -128 167 -172 162 -185 -4 -9 -9 -54 -10 -100 l-4 -83 -48
-53 c-101 -111 -166 -286 -149 -397 11 -65 37 -112 66 -119 19 -4 33 -22 57
-71 32 -69 59 -88 104 -74 17 6 19 17 19 111 0 58 -5 114 -11 125 -26 50 -103
39 -133 -18 l-14 -27 -21 34 c-29 48 -28 120 3 185 33 73 131 159 258 228 58
32 113 66 122 76 9 10 27 49 40 87 15 44 28 68 37 67 8 -1 41 -12 74 -23 91
-33 172 -30 272 9 58 23 97 46 132 79 116 109 126 259 19 286 -36 9 -107 -2
-78 -12 32 -10 50 -36 50 -70 0 -27 -8 -42 -40 -72 -65 -62 -102 -75 -208 -75
-91 0 -94 1 -119 29 -21 24 -23 35 -17 70 17 105 62 141 294 231 157 62 245
113 358 210 42 35 114 138 148 210 54 115 76 264 55 372 -8 41 -7 44 28 70
171 128 278 273 311 424 19 83 8 249 -19 321 -12 32 -26 60 -31 63 -5 3 -6
-36 -3 -87 6 -102 -19 -252 -58 -351 -46 -117 -141 -218 -275 -293 l-64 -36 0
-76 c-1 -153 -72 -282 -265 -481 -132 -135 -253 -232 -360 -287 -143 -74 -294
-174 -363 -238 -38 -36 -45 -39 -55 -25 -59 79 -72 89 -136 109 -36 12 -73 24
-81 26 -10 4 -5 10 16 20 38 18 54 51 54 108 0 52 -26 83 -115 136 -70 42
-239 172 -271 209 -62 70 -101 187 -128 382 -18 123 -44 198 -95 265 -32 43
-108 105 -142 116 -8 3 -11 28 -10 73 l1 70 -37 25 c-20 14 -41 30 -47 35 -6
6 -34 30 -61 54 -78 69 -355 342 -355 350 0 4 -11 13 -24 20 -13 7 -30 24 -37
38 -8 14 -34 46 -60 72 -25 25 -48 51 -50 57 -2 6 -20 30 -39 54 -19 23 -50
61 -68 83 -18 22 -40 54 -49 71 -9 17 -28 47 -43 66 -53 68 -155 255 -215 395
-9 22 -21 49 -26 60 -29 64 -77 280 -66 291 2 2 9 -22 16 -53 31 -140 113
-343 200 -493 111 -192 302 -425 531 -650 110 -108 303 -281 373 -334 20 -16
50 -55 69 -92 18 -35 74 -114 123 -174 50 -61 104 -129 122 -151 37 -46 53
-94 53 -162 0 -60 9 -78 74 -147 29 -30 69 -80 89 -110 20 -30 70 -93 111
-138 42 -46 91 -107 110 -135 18 -29 63 -80 98 -114 83 -79 111 -87 288 -81
155 6 195 19 238 77 14 20 89 101 167 181 177 182 256 297 284 415 11 43 26
64 105 145 191 196 274 345 311 556 8 48 15 106 15 130 0 29 8 55 25 79 60 89
87 218 84 395 l-2 115 42 75 c82 144 110 217 126 316 16 99 12 200 -9 229 -16
21 -111 37 -181 30 -77 -9 -215 -54 -313 -104 -88 -45 -173 -71 -229 -71 -39
0 -115 29 -127 49 -12 19 -24 12 -19 -11 8 -34 50 -86 83 -103 55 -29 96 -19
225 50 272 148 359 182 433 169 79 -13 100 -24 111 -57 19 -62 22 -115 11
-178 -15 -80 -39 -127 -107 -211 -67 -82 -134 -128 -189 -128 l-39 0 3 -49 c7
-94 -54 -187 -153 -232 l-60 -28 92 -1 c63 0 106 5 133 16 68 27 85 -6 56
-111 -14 -55 -39 -107 -67 -144 -15 -18 -19 -41 -19 -95 0 -109 -18 -240 -41
-302 -35 -93 -215 -295 -305 -342 -27 -14 -38 1 -78 101 -23 57 -25 73 -16
105 15 55 60 100 188 186 46 31 100 100 122 154 18 45 17 130 -3 172 l-15 35
-1 -46 c-1 -67 -27 -132 -74 -185 -33 -37 -69 -60 -185 -117 -146 -71 -212
-119 -212 -153 0 -11 19 -71 41 -134 97 -269 92 -247 87 -346 -6 -109 -37
-186 -101 -252 -59 -61 -91 -76 -129 -63 -17 6 -47 11 -67 11 l-36 0 33 -20
c44 -27 57 -63 42 -115 -32 -109 -91 -151 -232 -166 -111 -12 -155 -6 -229 31
-59 30 -94 68 -133 147 -23 44 -23 49 -9 65 9 10 54 36 102 59 l86 41 106 -4
c59 -2 102 0 96 4 -7 4 -22 8 -35 8 -37 0 -60 17 -72 55 -25 76 -3 96 130 120
59 10 79 18 97 39 13 15 23 34 23 43 0 14 -2 14 -19 -1 -22 -20 -72 -26 -78
-9 -3 7 10 21 27 30 69 38 88 61 100 120 12 56 12 58 -14 80 -15 13 -31 23
-37 23 -12 0 -12 -17 1 -25 17 -11 11 -51 -11 -71 -17 -15 -44 -20 -138 -26
-64 -4 -146 -10 -183 -14 -54 -5 -75 -2 -112 15 -54 23 -63 40 -48 87 13 42 0
52 -29 23 -34 -34 -21 -94 28 -137 21 -18 50 -40 66 -48 23 -12 26 -18 17 -34
-12 -22 -41 -26 -72 -9 -27 15 -34 4 -15 -25 12 -18 29 -26 65 -31 67 -9 107
-36 122 -80 22 -66 -2 -105 -95 -153 -99 -51 -192 -27 -284 73 -73 79 -85 118
-79 265 5 118 8 133 43 216 50 119 54 161 22 216 -23 40 -185 206 -233 239
-36 25 -61 72 -74 137 -14 69 -26 79 -36 28 -12 -69 12 -129 86 -211 27 -30
62 -74 76 -97 15 -24 43 -67 62 -96 33 -50 34 -57 29 -117 -5 -65 -44 -160
-65 -160 -6 0 -44 46 -85 101 -41 56 -103 135 -137 175 -35 41 -76 101 -91
135 -27 56 -29 68 -27 165 l3 104 -61 91 c-62 92 -82 140 -67 155 9 9 225 -15
243 -26 16 -10 74 23 130 74 l55 50 -102 -6 c-125 -7 -181 6 -233 56 -47 45
-67 107 -52 169 8 36 7 42 -7 42 -35 0 -116 37 -155 71 -53 47 -91 117 -111
205 -9 38 -32 116 -52 173 -41 121 -42 119 56 148 64 18 120 13 241 -23 105
-32 173 -65 221 -108 46 -42 98 -60 157 -53 58 6 92 43 92 100 0 43 -5 46 -31
13 -11 -14 -35 -30 -55 -36 -44 -15 -95 2 -199 65 -116 71 -156 80 -340 79
-131 0 -166 -3 -192 -17 -46 -24 -51 -57 -20 -115 14 -26 42 -99 62 -162 49
-154 80 -233 120 -305 l33 -60 4 -180 c5 -208 15 -243 93 -346 52 -69 76 -116
74 -151 -1 -16 -3 -18 -6 -6 -2 9 -48 49 -101 89 -92 69 -204 160 -247 200
-11 11 -47 43 -80 72 -107 94 -293 289 -347 364 -29 41 -77 106 -106 146 -74
102 -163 284 -212 436 -27 84 -48 131 -56 131 -8 0 -14 5 -14 11 0 5 -5 7 -11
3 -23 -14 26 -285 78 -434 24 -68 104 -252 123 -280 9 -14 22 -38 28 -54 35
-81 224 -349 340 -484 137 -159 356 -383 532 -544 l105 -97 3 -210 c2 -116 1
-211 -2 -211 -3 0 -25 18 -48 41 -53 51 -86 66 -166 75 -41 4 -62 11 -62 20 0
19 36 27 61 14 12 -7 25 -8 30 -3 5 5 -17 32 -53 63 -165 146 -505 501 -611
639 -15 20 -36 45 -45 57 -9 11 -28 35 -40 53 -278 388 -402 737 -402 1132 l0
144 43 51 c428 516 1096 900 1822 1049 150 31 422 55 626 55 540 0 1003 -107
1473 -342 654 -327 1155 -830 1480 -1486 119 -239 205 -479 261 -729 14 -64
28 -120 31 -125 8 -13 47 -10 299 27 132 20 278 41 325 46 47 6 87 13 89 14 5
6 -36 193 -74 340 -116 441 -323 888 -587 1264 -653 929 -1657 1540 -2772
1686 -232 30 -555 42 -756 28z m94 -175 c7 -43 36 -369 36 -402 0 -22 -5 -26
-29 -26 -26 0 -29 4 -35 43 -3 23 -9 93 -12 155 -4 62 -8 111 -10 110 -1 -2
-10 -60 -19 -128 -25 -201 -22 -192 -58 -188 -31 3 -32 5 -75 141 -25 76 -46
136 -48 135 -1 -2 1 -35 6 -73 5 -39 10 -101 12 -140 l3 -70 -30 0 -30 0 -11
125 c-7 69 -15 171 -19 228 l-7 102 49 0 50 0 31 -102 c17 -57 36 -125 43
-151 6 -26 13 -46 15 -44 2 2 11 68 19 148 9 79 18 150 20 157 3 7 22 12 49
12 43 0 45 -1 50 -32z m156 -158 c0 -177 1 -190 19 -200 25 -13 27 -13 45 6
13 12 16 39 16 123 0 59 3 142 6 184 7 77 7 77 36 77 l29 0 -3 -206 -3 -206
-28 -24 c-36 -31 -119 -34 -157 -4 l-25 19 -3 210 -3 211 35 0 36 0 0 -190z
m336 65 c12 -60 25 -128 30 -150 7 -37 8 -33 15 45 22 228 17 210 50 210 35 0
34 16 14 -217 -21 -252 -19 -243 -60 -243 -19 0 -36 4 -39 8 -3 5 -17 62 -31
128 -39 183 -37 183 -54 24 l-16 -145 -27 -3 c-27 -3 -28 -2 -28 50 0 29 7
121 15 203 8 83 15 163 15 178 0 27 1 28 47 25 l47 -3 22 -110z m248 76 c3 -4
-8 -104 -24 -221 -17 -117 -30 -216 -30 -221 0 -12 -41 -11 -59 0 -11 7 -9 39
13 197 39 278 32 254 66 254 16 0 31 -4 34 -9z m-1246 -46 c19 -17 30 -52 53
-166 16 -79 29 -154 29 -166 0 -102 -162 -144 -210 -54 -13 26 -60 268 -60
313 0 54 9 68 54 89 50 22 101 17 134 -16z m1456 11 c42 -18 59 -62 48 -126
-7 -42 -10 -45 -37 -45 -29 0 -30 2 -30 45 -1 55 -9 70 -39 70 -30 0 -39 -23
-66 -168 -23 -125 -21 -152 14 -152 31 0 42 15 53 70 8 40 11 45 33 42 39 -6
43 -16 30 -75 -19 -95 -64 -128 -143 -106 -49 13 -77 51 -77 103 0 49 45 278
60 306 26 48 89 63 154 36z m-1715 -133 c107 -352 103 -329 69 -342 -13 -5
-26 -6 -30 -2 -4 4 -26 65 -47 136 -22 72 -40 123 -40 114 -1 -9 4 -74 9 -144
11 -137 10 -145 -35 -145 -15 0 -38 31 -93 128 -41 70 -71 118 -67 107 23 -61
77 -256 73 -261 -3 -3 -18 -6 -33 -7 -25 -2 -29 3 -42 48 -8 28 -37 124 -65
214 -55 178 -55 175 11 187 42 8 47 2 126 -148 31 -60 59 -108 60 -106 2 2 -3
62 -11 133 -18 176 -19 172 14 183 62 23 65 21 101 -95z m1908 81 c7 -18 -12
-102 -66 -294 -34 -123 -40 -135 -62 -138 -47 -5 -50 7 -24 103 56 214 87 331
92 338 8 13 54 7 60 -9z m157 -34 c78 -26 96 -44 96 -91 0 -48 -43 -169 -67
-187 -17 -13 -65 -11 -119 4 -18 5 -23 -4 -45 -73 -25 -82 -45 -99 -81 -71
-15 12 -10 32 54 226 54 164 73 212 86 212 9 0 44 -9 76 -20z m255 -91 c18 -6
31 -18 31 -27 0 -18 -81 -434 -86 -440 -1 -2 -17 -1 -34 3 -31 7 -31 8 -24 48
11 67 11 69 -23 83 -31 13 -32 13 -58 -31 -27 -48 -40 -53 -69 -32 -18 13 -17
15 2 53 23 44 189 322 204 342 13 15 17 15 57 1z m-2723 -34 c18 -23 77 -163
115 -273 26 -77 -26 -142 -113 -142 -61 0 -84 28 -142 172 -54 135 -63 176
-46 217 26 64 142 81 186 26z m2922 -51 c12 -8 22 -19 22 -24 0 -4 -34 -80
-75 -168 -41 -88 -75 -166 -75 -174 0 -8 20 -24 45 -36 42 -20 44 -23 33 -47
-6 -14 -17 -25 -23 -25 -17 0 -144 59 -150 70 -3 5 22 68 56 142 34 73 77 166
95 206 18 39 37 72 42 72 4 0 18 -7 30 -16z m-3168 -77 c19 -39 62 -130 97
-202 l62 -130 -36 -19 -37 -18 -40 43 c-23 24 -72 78 -109 119 l-68 75 65
-135 64 -135 -20 -18 c-12 -10 -25 -16 -29 -15 -11 4 -199 385 -199 404 0 8
16 22 36 31 l36 17 51 -54 c29 -30 73 -80 100 -110 l47 -55 -20 45 c-11 25
-38 81 -60 125 -35 72 -37 81 -23 93 33 24 48 13 83 -61z m3506 -98 c72 -41
97 -74 91 -119 -6 -44 -150 -285 -183 -307 -34 -22 -88 -12 -152 27 -29 17
-52 36 -52 40 0 19 225 390 237 390 3 0 30 -14 59 -31z m-3800 -26 c14 -16 57
-80 95 -143 74 -122 86 -171 54 -216 -22 -33 -81 -57 -121 -50 -40 8 -56 28
-148 180 -54 89 -66 117 -66 152 0 36 5 47 35 73 49 42 111 44 151 4z m-245
-105 c10 -19 8 -25 -15 -45 l-27 -23 19 -28 c10 -15 61 -87 112 -161 l94 -134
-24 -19 c-12 -10 -28 -17 -34 -15 -9 3 -189 250 -216 297 -8 13 -13 13 -42 -3
-32 -18 -33 -18 -50 3 -10 12 -18 25 -18 29 1 10 162 121 176 121 7 0 19 -10
25 -22z m4310 -38 c32 -23 59 -45 59 -49 0 -5 -8 -19 -19 -32 l-19 -23 -35 27
c-20 15 -38 27 -41 27 -8 0 -66 -81 -66 -91 0 -4 14 -16 30 -26 33 -19 37 -39
16 -68 -13 -18 -14 -18 -42 2 -16 11 -34 23 -40 26 -7 4 -27 -16 -50 -49 l-38
-55 42 -37 c42 -37 42 -37 24 -60 l-18 -23 -61 40 c-95 64 -95 54 -6 180 43
61 100 143 126 181 27 39 55 70 63 70 8 0 42 -18 75 -40z m-4468 -213 c142
-173 157 -195 157 -233 0 -50 -51 -103 -106 -111 -36 -5 -45 -1 -77 27 -46 40
-237 275 -237 291 0 14 29 38 47 39 6 0 36 -30 65 -68 132 -169 172 -212 195
-212 12 0 27 9 33 19 9 17 -7 41 -105 164 -63 80 -115 150 -115 155 0 14 41
43 51 36 5 -3 46 -51 92 -107z m4733 12 c64 -39 73 -100 24 -167 -34 -47 -49
-51 -75 -22 -17 19 -16 20 9 51 29 35 30 56 4 73 -26 16 -41 4 -136 -108 -65
-77 -82 -104 -80 -125 5 -45 44 -41 88 11 38 43 38 43 59 24 27 -25 26 -32 -5
-70 -66 -78 -125 -87 -185 -27 -62 62 -55 89 68 238 119 145 158 166 229 122z
m-5040 -166 c169 -127 304 -236 304 -247 0 -16 -21 -36 -39 -36 -8 0 -29 11
-47 25 -40 30 -46 31 -69 4 -19 -20 -18 -21 5 -65 19 -35 22 -48 14 -62 -22
-34 -42 -25 -80 35 -20 32 -77 119 -126 193 l-90 134 31 28 c17 15 35 28 40
28 4 0 30 -17 57 -37z m5212 15 c21 -21 13 -40 -44 -100 l-56 -59 23 -25 c12
-13 28 -24 34 -24 7 0 38 28 70 61 l57 61 26 -26 26 -26 -60 -62 c-271 -283
-261 -274 -283 -254 -24 22 -26 39 -8 58 7 7 37 39 66 71 l55 58 -27 27 -27
27 -75 -75 -75 -75 -26 27 -26 26 99 103 c54 57 123 130 152 162 54 57 77 67
99 45z m209 -218 c7 -10 10 -25 7 -32 -3 -7 -64 -65 -135 -128 -71 -63 -129
-122 -129 -130 0 -21 20 -40 41 -40 10 0 54 33 98 74 45 41 106 96 136 122 54
45 56 46 75 29 36 -32 45 -21 -152 -198 -135 -121 -163 -130 -228 -71 -36 32
-40 41 -40 82 0 42 4 49 63 106 113 111 222 205 237 206 8 0 21 -9 27 -20z
m-5590 -76 c135 -115 182 -165 189 -200 13 -72 -38 -134 -112 -134 -39 0 -51
7 -116 62 -40 35 -97 86 -125 113 -49 48 -53 54 -53 99 0 42 5 53 35 83 33 33
39 35 80 31 35 -4 57 -16 102 -54z m5793 -179 c0 -7 -67 -63 -150 -125 -82
-62 -150 -115 -150 -118 0 -3 11 -20 25 -38 14 -18 25 -39 25 -46 0 -17 -20
-38 -37 -38 -11 0 -113 125 -113 140 0 3 19 20 43 37 23 17 105 78 182 137
139 105 140 106 158 85 9 -12 17 -27 17 -34z m-6032 -12 c149 -106 292 -214
292 -221 -1 -4 -11 -19 -23 -34 l-22 -26 -125 42 c-181 62 -181 62 -119 20
146 -101 179 -129 176 -148 -1 -10 -9 -23 -18 -29 -12 -8 -54 18 -192 119 -97
70 -177 134 -177 141 0 21 31 63 45 63 17 0 204 -64 234 -79 54 -29 23 0 -74
69 -102 73 -118 93 -93 118 18 18 24 16 96 -35z m6156 -148 c9 -13 16 -27 16
-30 0 -3 -70 -51 -155 -106 -127 -83 -155 -105 -155 -125 0 -12 8 -27 17 -33
21 -12 40 -2 176 88 56 37 117 76 134 86 32 19 33 19 48 0 8 -11 15 -26 15
-33 0 -13 -272 -196 -317 -213 -45 -17 -74 -10 -109 25 -29 29 -34 41 -34 83
0 38 5 54 23 71 23 22 307 210 318 211 4 1 14 -10 23 -24z m-6316 -106 c30
-17 61 -44 70 -60 13 -22 24 -29 48 -29 30 0 174 -83 174 -100 0 -4 -8 -18
-19 -31 l-18 -23 -78 49 -78 48 -24 -27 c-13 -15 -21 -32 -18 -37 3 -5 37 -27
74 -49 38 -22 71 -46 74 -54 6 -14 -18 -56 -31 -56 -5 0 -82 46 -172 103 -220
137 -210 131 -210 140 0 17 74 129 94 143 30 21 55 17 114 -17z m6491 -168
c11 -20 16 -42 13 -47 -4 -5 -51 -44 -104 -87 -124 -100 -131 -109 -81 -96 21
6 77 24 124 40 118 40 132 39 154 -11 10 -22 16 -42 14 -45 -13 -13 -383 -205
-395 -205 -12 0 -32 46 -23 54 2 2 53 29 112 61 59 31 106 59 104 62 -3 2 -60
-12 -128 -31 l-124 -35 -17 20 c-10 12 -18 25 -18 29 0 5 44 45 98 91 140 118
140 118 -2 44 -122 -64 -130 -67 -143 -49 -22 31 -15 40 60 79 39 21 88 47
107 58 108 62 215 115 222 111 5 -3 17 -22 27 -43z m-6706 -35 c21 -16 21 -34
2 -60 -25 -32 -17 -50 30 -75 49 -26 57 -24 79 20 14 29 27 33 51 15 19 -14
19 -15 2 -50 -9 -20 -17 -39 -17 -41 0 -10 124 -67 127 -59 2 5 12 24 23 42
21 34 36 39 63 20 16 -12 14 -19 -21 -85 -20 -40 -43 -73 -51 -73 -13 0 -362
182 -388 202 -9 8 -5 25 19 71 46 93 50 96 81 73z m-11 -247 c134 -61 288
-137 288 -144 0 -12 -24 -55 -31 -55 -12 0 -392 179 -403 190 -11 11 8 60 23
60 5 0 60 -23 123 -51z m-75 -102 c17 -7 43 -22 57 -34 16 -15 39 -23 61 -23
39 0 131 -34 158 -57 9 -9 17 -30 17 -49 0 -41 -49 -164 -66 -164 -6 0 -101
36 -210 80 -109 44 -199 80 -201 80 -16 0 35 130 64 162 19 21 71 23 120 5z
m6998 -38 c9 -17 14 -36 12 -43 -5 -12 -345 -228 -380 -242 -12 -4 -20 2 -27
21 -5 14 -10 28 -10 30 0 2 20 18 44 34 43 30 44 32 33 61 -12 32 -21 34 -80
21 -31 -8 -39 -6 -47 9 -25 48 -35 43 285 114 147 32 151 32 170 -5z m86 -219
c7 -22 10 -42 8 -44 -2 -1 -55 -38 -116 -80 -62 -43 -113 -79 -113 -81 0 -2
51 14 113 36 138 48 157 49 157 10 0 -28 -2 -29 -172 -84 -225 -72 -257 -81
-263 -75 -3 3 -8 21 -11 40 l-6 34 126 85 c70 46 123 85 118 87 -4 1 -61 -16
-127 -38 -65 -22 -127 -40 -136 -40 -19 0 -36 37 -22 50 11 11 394 140 415
140 11 0 21 -13 29 -40z m-7079 -36 c166 -55 191 -73 191 -135 0 -61 -25 -105
-68 -119 -32 -10 -49 -8 -153 24 -211 63 -232 77 -232 155 0 72 36 112 108
120 7 0 76 -20 154 -45z m7162 -240 c4 -15 5 -28 2 -31 -11 -11 -432 -119
-439 -113 -4 4 -9 19 -10 35 l-2 27 190 53 c224 63 250 66 259 29z m-7332 -6
c3 -7 2 -22 0 -35 -3 -18 -12 -22 -51 -25 -40 -3 -46 -6 -49 -27 -2 -13 0 -27
5 -32 5 -5 71 -24 148 -44 137 -35 139 -35 158 -17 26 27 10 55 -41 70 -53 16
-59 15 -65 -8 -5 -20 -50 -29 -61 -12 -8 14 16 103 29 108 14 6 188 -33 218
-48 20 -10 22 -34 5 -45 -7 -4 -13 -29 -14 -55 0 -56 -22 -85 -69 -94 -31 -5
-294 54 -336 77 -63 33 -64 152 -2 188 26 15 120 14 125 -1z m3051 -1652 c52
-21 124 -116 89 -116 -4 0 -37 29 -72 65 -68 68 -69 73 -17 51z"/>
<path d="M3462 8368 c-7 -7 -12 -23 -12 -37 1 -52 48 -253 62 -268 18 -18 53
-10 62 14 8 19 -42 272 -57 291 -12 15 -39 16 -55 0z"/>
<path d="M5312 8213 c-19 -63 -19 -69 -4 -81 33 -25 56 -10 77 50 21 63 16 78
-31 92 -19 6 -23 -1 -42 -61z"/>
<path d="M5531 8049 c-25 -49 -30 -64 -19 -70 22 -14 27 -10 37 29 16 58 24
102 19 102 -3 0 -19 -28 -37 -61z"/>
<path d="M2790 8165 c-16 -19 -11 -34 52 -185 38 -91 47 -105 69 -108 14 -2
31 4 38 12 10 12 4 36 -34 133 -26 65 -53 128 -61 141 -17 26 -46 29 -64 7z"/>
<path d="M6041 7784 c-77 -127 -81 -137 -64 -150 42 -31 56 -20 131 107 40 66
72 129 72 139 0 18 -27 40 -48 40 -5 0 -46 -61 -91 -136z"/>
<path d="M2262 7908 c-7 -7 -12 -18 -12 -25 0 -23 144 -253 163 -259 22 -7 47
12 47 35 0 17 -110 212 -138 244 -18 20 -43 22 -60 5z"/>
<path d="M1665 7350 c24 -40 78 -110 85 -110 4 0 13 6 19 14 9 11 1 21 -36 51
-75 60 -78 62 -68 45z"/>
<path d="M1352 7148 c-7 -7 -12 -19 -12 -29 0 -21 205 -209 228 -209 21 0 42
18 42 37 0 22 -209 213 -234 213 -7 0 -17 -5 -24 -12z"/>
<path d="M986 6655 c-9 -13 -16 -26 -16 -28 0 -6 100 -67 110 -67 10 0 40 40
40 52 0 13 -82 68 -100 68 -10 0 -25 -11 -34 -25z"/>
<path d="M703 6108 c-29 -38 -24 -49 32 -74 31 -13 57 -24 59 -24 2 0 9 13 14
29 12 35 1 55 -41 71 -37 13 -52 13 -64 -2z"/>
<path d="M870 6024 c-15 -37 -15 -37 48 -62 72 -27 78 -27 86 1 11 40 6 48
-36 67 -60 27 -86 26 -98 -6z"/>
<path d="M7567 6065 c-59 -16 -61 -18 -52 -45 7 -21 7 -21 53 6 26 15 56 33
67 41 19 13 19 13 0 12 -11 0 -42 -7 -68 -14z"/>
<path d="M601 5831 c-7 -13 -7 -23 2 -35 14 -19 272 -107 292 -100 24 10 29
45 9 64 -20 19 -236 90 -273 90 -11 0 -25 -8 -30 -19z"/>
<path d="M4657 7631 c8 -56 -21 -72 -144 -82 -156 -13 -271 -44 -445 -121
-140 -61 -312 -201 -383 -312 -44 -69 -90 -175 -106 -242 -18 -79 -26 -204
-14 -204 6 0 31 13 56 28 74 47 110 95 256 342 72 121 159 236 220 290 110 96
266 160 393 160 173 0 246 56 190 148 -11 17 -22 32 -24 32 -2 0 -2 -18 1 -39z"/>
<path d="M4491 7352 c-110 -74 -162 -247 -110 -362 26 -59 82 -116 144 -147
80 -41 157 -97 201 -147 35 -38 47 -46 77 -46 20 0 38 4 42 9 10 18 110 69
175 91 36 12 107 25 159 31 52 5 99 13 104 18 6 6 -11 20 -44 37 -121 60 -196
119 -353 277 -125 126 -179 173 -241 209 -44 26 -87 50 -96 53 -8 3 -35 -7
-58 -23z"/>
<path d="M4237 7280 c-121 -97 -286 -277 -333 -362 -47 -83 -72 -150 -81 -213
-5 -38 -3 -43 18 -48 16 -5 32 0 49 13 57 45 71 51 156 61 94 11 164 6 254
-16 75 -19 190 -33 184 -23 -3 4 -11 8 -17 8 -55 2 -215 143 -253 225 -37 79
-34 166 11 263 20 42 49 94 66 115 16 20 28 37 25 37 -3 0 -38 -27 -79 -60z"/>
<path d="M5345 6651 c-3 -5 9 -11 27 -13 31 -3 33 -6 36 -42 7 -83 -37 -116
-154 -116 -90 0 -132 -20 -159 -76 -32 -67 0 -123 89 -154 66 -24 107 -17 144
23 21 22 46 76 39 84 -2 2 -27 -12 -56 -31 -44 -30 -55 -33 -79 -25 -36 12
-55 44 -47 79 10 46 36 60 122 69 95 10 120 22 139 66 33 79 5 145 -61 145
-19 0 -36 -4 -40 -9z"/>
<path d="M2898 6604 c-96 -52 16 -194 152 -194 32 0 58 -7 81 -23 29 -19 34
-29 34 -62 0 -33 -5 -42 -26 -52 -38 -18 -88 -1 -126 45 -31 36 -32 36 -34 12
-4 -66 11 -89 75 -122 66 -34 172 -5 196 53 25 61 -11 159 -67 180 -13 5 -56
9 -94 9 -43 0 -81 6 -99 15 -27 14 -60 60 -60 84 0 18 32 41 58 41 26 1 26 1
8 15 -25 19 -63 18 -98 -1z"/>
<path d="M4572 6403 c89 -175 90 -334 1 -464 -76 -110 -111 -213 -94 -274 l8
-30 7 31 c17 76 116 147 261 190 l60 18 -40 8 c-22 5 -59 6 -83 3 -54 -8 -62
9 -37 77 22 61 45 187 45 249 0 58 -39 139 -85 173 -33 26 -50 33 -43 19z"/>
<path d="M3820 6363 c-45 -55 -99 -170 -109 -233 -10 -59 -2 -125 23 -210 9
-30 16 -57 16 -61 0 -4 -18 -5 -39 -2 -48 7 -131 -5 -131 -18 0 -5 6 -9 14 -9
25 0 160 -62 191 -88 43 -36 74 -81 87 -127 l11 -40 14 35 c10 22 14 58 11
100 -3 53 -10 76 -40 125 -59 99 -88 193 -88 290 0 88 23 183 60 243 26 43 19
41 -20 -5z"/>
<path d="M5645 6235 c-11 -24 -20 -70 -23 -115 -4 -68 0 -85 32 -170 20 -52
48 -120 61 -150 54 -124 66 -192 77 -437 9 -208 9 -240 -6 -300 -33 -131 -118
-265 -286 -452 -102 -114 -120 -145 -120 -208 0 -40 8 -69 31 -116 25 -49 32
-75 33 -128 l1 -66 17 29 c45 72 77 149 92 218 22 97 66 186 116 235 22 21 74
60 116 85 160 97 282 233 320 357 25 81 22 237 -6 340 -27 101 -81 185 -219
348 -111 130 -168 221 -192 305 -7 25 -15 95 -19 155 l-6 110 -19 -40z"/>
<path d="M3428 5645 c-18 -19 68 -153 122 -188 26 -17 259 -71 268 -62 10 9
-60 151 -91 183 -19 19 -52 39 -82 48 -56 17 -206 30 -217 19z m168 -72 c-1
-34 2 -38 24 -38 19 0 27 7 36 33 l10 33 31 -28 c30 -28 54 -68 67 -110 7 -21
4 -23 -37 -23 -75 0 -147 28 -194 75 -29 28 -43 51 -43 69 0 25 2 26 54 26
l53 0 -1 -37z"/>
<path d="M4780 5631 c-115 -7 -145 -18 -196 -73 -40 -42 -62 -84 -70 -137 -7
-46 -3 -48 47 -27 19 7 63 17 99 20 40 5 81 17 106 31 47 27 108 98 129 149
18 43 18 46 3 44 -7 -1 -60 -4 -118 -7z m60 -57 c0 -43 -64 -98 -140 -122 -36
-10 -82 -22 -102 -26 -44 -8 -48 2 -22 62 26 62 93 119 94 80 1 -26 28 -50 49
-43 23 7 28 44 9 63 -9 9 2 12 50 12 60 0 62 -1 62 -26z"/>
<path d="M2650 5540 c0 -5 5 -10 10 -10 6 0 10 5 10 10 0 6 -4 10 -10 10 -5 0
-10 -4 -10 -10z"/>
<path d="M2980 5240 c0 -5 5 -10 10 -10 6 0 10 5 10 10 0 6 -4 10 -10 10 -5 0
-10 -4 -10 -10z"/>
<path d="M7925 5173 c-14 -62 -58 -190 -86 -245 l-29 -58 -30 15 c-32 17 -41
10 -14 -10 22 -16 26 -129 6 -153 -13 -16 -13 -15 -8 2 6 16 4 17 -9 6 -17
-14 -16 -16 -19 95 0 33 -5 60 -11 60 -5 0 -9 -9 -7 -20 2 -11 0 -35 -3 -53
-6 -30 -7 -31 -23 -16 -9 10 -24 34 -34 56 -18 40 -28 44 -87 32 -26 -5 -31
-11 -31 -34 0 -22 7 -31 28 -39 l27 -11 -27 4 c-21 2 -28 -1 -28 -14 0 -13 12
-19 49 -24 39 -5 50 -11 55 -29 7 -27 -16 -47 -57 -47 -24 0 -27 -2 -18 -14 9
-11 20 -12 44 -5 42 12 80 12 72 -1 -3 -5 0 -7 8 -4 8 3 18 1 21 -4 5 -8 -39
-32 -84 -45 -12 -4 -12 -6 3 -12 10 -4 32 0 51 9 19 9 43 16 55 16 28 0 27
-28 -1 -39 -22 -9 -22 -9 -3 -17 11 -4 23 -8 26 -10 3 -2 27 8 54 22 59 32 67
26 92 -68 l17 -67 -24 -26 c-23 -25 -24 -27 -7 -37 17 -9 17 -12 3 -33 -22
-33 -21 -35 19 -35 31 0 35 -3 35 -25 0 -22 -4 -25 -33 -25 -18 0 -42 -7 -53
-15 -10 -8 -31 -15 -46 -15 -27 0 -27 0 -13 -34 13 -31 13 -35 -10 -56 -18
-17 -25 -20 -27 -9 -5 55 -35 109 -61 110 -50 3 -72 -4 -129 -41 -69 -45 -114
-63 -218 -85 -73 -15 -191 -70 -197 -90 -1 -5 9 -23 23 -40 17 -19 22 -22 15
-8 -13 25 1 33 56 33 32 0 34 -2 22 -17 -8 -9 -27 -24 -42 -34 -16 -9 -24 -19
-19 -23 5 -3 27 7 48 23 27 19 56 30 94 34 l55 6 -30 -25 c-16 -14 -46 -38
-66 -53 l-36 -27 59 -52 c32 -28 66 -52 74 -52 35 0 88 36 140 96 61 69 100
94 148 94 l31 0 -45 -46 c-25 -25 -54 -54 -64 -64 -19 -19 -19 -19 20 -18 47
1 65 10 125 60 25 21 48 38 51 38 4 0 8 -10 10 -22 2 -17 9 -23 27 -22 21 1
23 -2 17 -38 -4 -23 -2 -38 4 -38 5 0 10 8 10 18 1 38 79 98 95 72 9 -15 25
-12 19 3 -8 21 52 58 81 51 24 -6 25 -4 20 19 -4 16 -2 33 7 44 16 22 61 24
70 3 5 -12 7 -12 7 3 1 10 9 17 20 17 19 0 61 43 61 61 0 19 -19 7 -22 -13 -4
-27 -36 -31 -51 -7 -7 12 -4 22 13 42 13 15 28 27 33 27 5 0 20 10 32 23 13
12 33 30 46 40 20 15 21 17 4 11 -11 -4 -34 -9 -50 -11 -30 -5 -31 -4 -27 36
3 33 8 41 21 37 46 -14 89 -16 114 -7 40 15 33 30 -12 24 -22 -3 -63 2 -96 12
l-58 16 26 18 c15 10 25 20 22 23 -3 2 13 11 35 18 33 11 49 11 95 0 50 -12
53 -14 43 -34 -6 -12 13 1 41 29 52 50 73 86 24 40 -32 -29 -35 -29 -127 -7
-63 15 -68 18 -53 32 45 41 43 41 115 28 65 -11 102 -8 102 9 0 4 -11 9 -25 9
-47 3 -95 15 -95 23 0 5 12 12 27 16 16 4 34 12 41 18 8 6 23 12 34 14 16 3
18 -1 13 -19 -5 -18 -4 -19 4 -7 5 8 19 46 29 85 11 38 22 76 26 85 6 13 2 16
-18 12 -13 -3 -23 -10 -20 -17 4 -11 -56 -59 -64 -51 -7 6 9 44 24 60 14 13
13 16 -8 24 -15 6 -32 4 -50 -5 -15 -8 -49 -14 -76 -14 -43 0 -52 -4 -83 -37
-19 -21 -44 -44 -55 -51 -17 -11 -16 -11 4 -1 31 14 33 10 23 -32 -5 -19 -15
-67 -21 -107 -7 -45 -18 -76 -26 -79 -8 -3 -14 -11 -14 -19 0 -8 -4 -14 -10
-14 -5 0 -10 9 -10 20 0 11 5 20 10 20 6 0 10 5 10 11 0 5 -4 8 -9 5 -17 -11
-21 27 -10 88 7 34 16 67 22 74 15 19 2 25 -14 6 -15 -19 -16 -23 -32 -126
-10 -68 -14 -77 -35 -81 -25 -5 -25 1 -7 88 3 11 -2 7 -10 -10 -8 -16 -14 -39
-15 -50 -1 -42 -33 -105 -61 -119 -23 -11 -29 -12 -33 0 -3 7 0 11 7 8 8 -3
19 14 30 42 16 44 16 48 1 66 -21 22 -52 24 -60 3 -13 -32 -32 -12 -49 53 -22
81 -35 113 -45 107 -7 -5 -2 24 16 85 4 14 18 38 31 53 12 16 23 34 23 40 0 7
-8 3 -18 -8 -9 -12 -25 -27 -35 -35 -18 -14 -18 -13 -3 25 9 22 22 45 29 50
20 16 57 67 57 78 0 6 -16 -4 -35 -23 -19 -19 -35 -31 -35 -28 0 17 32 77 54
100 29 30 32 55 14 104 l-12 33 -32 -37 c-18 -20 -35 -34 -39 -30 -5 4 -2 14
5 23 7 8 9 15 6 15 -4 0 4 15 18 33 15 19 27 40 27 48 1 8 5 1 9 -16 l8 -30 1
36 c1 23 -5 42 -17 52 -25 23 -31 21 -37 -10z m26 -171 c-5 -10 -27 -32 -47
-47 -43 -33 -36 -16 15 37 38 39 49 43 32 10z m-91 -162 c0 -5 -7 -7 -15 -4
-8 4 -12 10 -9 15 6 11 24 2 24 -11z m-24 -27 c18 -25 18 -93 0 -93 -8 0 -19
14 -25 31 -22 65 -7 103 25 62z m662 -60 c-2 -5 -14 -32 -27 -61 -13 -29 -29
-51 -36 -50 -7 2 -23 -8 -34 -21 -21 -24 -21 -24 -21 -3 0 41 33 104 64 123
31 19 61 25 54 12z m-131 -105 c-28 -80 -35 -93 -54 -92 -12 0 -20 -3 -17 -7
2 -4 0 -10 -5 -13 -17 -11 -19 36 -5 91 20 76 48 113 84 113 l29 0 -32 -92z
m-357 -223 c-7 -8 -16 -12 -21 -10 -4 3 -1 14 9 23 20 20 30 9 12 -13z m130
-35 c0 -5 -5 -10 -11 -10 -5 0 -7 5 -4 10 3 6 8 10 11 10 2 0 4 -4 4 -10z m25
1 c3 -5 2 -12 -3 -15 -5 -3 -9 1 -9 9 0 17 3 19 12 6z m-8 -48 c2 -6 -2 -13
-9 -16 -9 -3 -14 3 -14 14 0 20 17 21 23 2z m73 -38 c16 10 11 -18 -8 -45 -22
-32 -52 -35 -53 -6 -2 35 2 50 19 69 15 17 16 17 24 -3 4 -12 12 -18 18 -15z
m-117 -38 c2 -7 1 -21 -4 -32 -7 -19 -8 -19 -8 2 -1 12 -5 25 -11 28 -5 3 -10
10 -10 15 0 13 27 1 33 -13z m-189 -54 c-20 -15 -36 -13 -42 6 -3 8 4 10 22 5
21 -5 26 -3 27 12 0 14 2 15 6 5 3 -8 -3 -20 -13 -28z m-200 -13 c21 -52 21
-90 0 -90 -8 0 -12 5 -9 11 4 6 -1 5 -13 -2 -25 -16 -44 -8 -62 27 -8 16 -19
32 -25 37 -15 11 41 57 69 57 18 0 28 -9 40 -40z m531 10 c-3 -5 -14 -10 -23
-9 -14 0 -13 2 3 9 27 11 27 11 20 0z m-136 -25 c15 9 14 -58 -1 -73 -15 -15
-48 -16 -48 -1 0 6 9 13 20 16 11 3 20 11 20 19 0 17 -23 31 -28 16 -2 -7 -8
-12 -13 -12 -8 0 -8 20 0 59 1 2 10 -4 20 -13 11 -10 25 -15 30 -11z m-125 -8
c8 -13 6 -21 -8 -34 -17 -17 -18 -17 -11 5 4 13 2 22 -4 22 -6 0 -11 7 -11 16
0 19 20 14 34 -9z m191 3 c3 -5 1 -10 -4 -10 -6 0 -11 5 -11 10 0 6 2 10 4 10
3 0 8 -4 11 -10z m-565 -64 c0 -13 -5 -17 -20 -13 -11 3 -18 1 -14 -4 3 -5 -2
-9 -10 -9 -9 0 -16 6 -17 13 0 9 -2 9 -6 -1 -2 -6 -9 -10 -14 -6 -5 3 5 24 22
46 l32 40 13 -24 c7 -12 13 -31 14 -42z m-89 16 c-13 -25 -38 -45 -51 -40 -5
1 1 15 15 31 30 31 51 37 36 9z m-71 -17 c0 -28 -60 -85 -90 -85 -63 0 -45 39
35 76 59 28 55 27 55 9z m387 -24 c1 -18 -5 -35 -15 -43 -15 -12 -16 -11 -3 5
11 14 12 23 3 37 -6 10 -8 21 -5 24 12 12 18 5 20 -23z m-57 -36 c0 -8 9 -24
21 -36 23 -23 14 -43 -16 -37 -26 5 -39 31 -31 61 7 29 26 37 26 12z m-537 -2
c-7 -2 -19 -2 -25 0 -7 3 -2 5 12 5 14 0 19 -2 13 -5z m797 -33 c-20 -13 -33
-13 -25 0 3 6 14 10 23 10 15 0 15 -2 2 -10z m-536 -22 c-34 -40 -88 -86 -124
-107 -31 -17 -37 -18 -55 -5 -20 15 -19 16 10 41 84 70 121 93 154 93 l34 0
-19 -22z m105 -5 c-7 -10 -21 -25 -30 -35 -9 -9 -33 -36 -53 -61 -61 -75 -114
-98 -152 -66 -20 16 -18 23 14 41 15 9 58 42 97 72 67 54 94 69 79 44 -5 -7 3
-5 16 4 33 22 46 22 29 1z m281 -13 c0 -5 -2 -10 -4 -10 -3 0 -8 5 -11 10 -3
6 -1 10 4 10 6 0 11 -4 11 -10z m60 -11 c0 -6 -4 -7 -10 -4 -5 3 -10 11 -10
16 0 6 5 7 10 4 6 -3 10 -11 10 -16z m-93 -16 c-3 -3 -11 -2 -17 2 -9 6 -9 10
1 16 14 8 27 -7 16 -18z m59 1 c-4 -9 -9 -15 -11 -12 -3 3 -3 13 1 22 4 9 9
15 11 12 3 -3 3 -13 -1 -22z m-222 -49 c-14 -19 -31 -35 -36 -35 -5 0 4 16 19
35 36 46 52 46 17 0z"/>
<path d="M7475 4000 c3 -5 8 -10 11 -10 2 0 4 5 4 10 0 6 -5 10 -11 10 -5 0
-7 -4 -4 -10z"/>
<path d="M908 5105 c-4 -4 -4 -13 -2 -19 3 -7 -3 -19 -13 -27 -16 -13 -17 -12
-4 4 8 9 11 20 8 24 -19 19 -112 -152 -127 -236 -19 -101 -4 -341 23 -368 10
-10 27 44 54 172 13 66 33 152 45 190 27 94 43 220 32 246 -5 11 -12 17 -16
14z"/>
<path d="M456 4991 c-5 -8 1 -10 21 -6 15 3 40 2 56 -1 22 -4 27 -11 27 -34 0
-22 4 -28 15 -24 11 4 13 2 9 -9 -3 -8 0 -18 5 -22 6 -3 18 -23 26 -42 9 -20
18 -33 21 -30 3 3 -1 20 -10 38 -19 37 -19 39 -7 39 5 0 15 -14 22 -32 7 -18
22 -41 32 -51 11 -11 18 -16 15 -11 -2 5 -12 28 -22 52 -10 23 -22 42 -28 42
-5 0 -7 4 -4 8 3 5 -12 25 -33 46 -30 29 -48 38 -88 42 -33 4 -53 3 -57 -5z
m164 -75 c0 -3 -4 -8 -10 -11 -5 -3 -10 -1 -10 4 0 6 5 11 10 11 6 0 10 -2 10
-4z"/>
<path d="M490 4966 c0 -8 5 -18 10 -21 6 -3 10 3 10 14 0 12 -4 21 -10 21 -5
0 -10 -6 -10 -14z"/>
<path d="M450 4866 c0 -31 38 -116 82 -183 61 -92 64 -103 31 -103 -22 0 -24
-2 -12 -16 8 -9 12 -27 11 -40 -2 -15 2 -24 10 -24 7 0 22 -17 33 -37 11 -21
23 -40 27 -43 4 -3 9 -17 10 -30 3 -23 -1 -25 -57 -34 -45 -7 -60 -6 -63 4 -3
7 -13 21 -23 31 -10 10 -22 37 -25 59 -8 50 -24 52 -24 4 0 -116 120 -296 229
-345 75 -33 74 -34 69 94 -5 89 -11 127 -33 182 -41 108 -41 109 -19 103 10
-3 27 -9 37 -13 18 -7 18 -3 11 86 -9 114 -24 174 -18 74 l3 -70 -9 59 c-6 39
-18 69 -33 85 -13 14 -27 34 -31 45 -5 16 -9 16 -23 5 -13 -11 -17 -11 -20 -1
-3 6 -9 10 -14 6 -17 -10 -9 -24 13 -24 l22 0 -21 -15 c-26 -18 -20 -49 8 -42
15 4 17 2 10 -10 -9 -18 -2 -61 8 -44 4 5 12 6 19 2 10 -6 4 -12 -18 -21 -27
-11 -34 -11 -48 3 -8 9 -13 20 -9 24 4 3 14 -2 22 -13 22 -29 19 3 -4 34 -10
15 -21 36 -23 47 -2 11 -10 19 -16 18 -16 -4 -15 14 1 20 9 4 8 6 -2 6 -8 1
-19 9 -26 18 -11 15 -12 14 -8 -11 4 -20 2 -27 -6 -22 -6 4 -14 25 -17 47 -4
23 -10 36 -14 29 -4 -7 -10 3 -14 24 -7 36 -26 60 -26 32z m242 -306 c-5 -35
-20 -47 -28 -24 -4 10 -12 22 -18 27 -7 5 -6 10 4 17 25 17 45 7 42 -20z
m-101 -357 c13 -16 12 -17 -3 -4 -10 7 -18 15 -18 17 0 8 8 3 21 -13z"/>
<path d="M530 4832 c0 -6 9 -12 20 -15 11 -3 20 -3 20 -1 0 2 -9 8 -20 14 -11
6 -20 7 -20 2z"/>
<path d="M692 4785 c0 -5 6 -26 13 -45 7 -19 14 -28 14 -20 0 8 -6 29 -14 45
-7 17 -13 26 -13 20z"/>
<path d="M8490 4576 c0 -2 7 -7 16 -10 8 -3 12 -2 9 4 -6 10 -25 14 -25 6z"/>
<path d="M488 4563 c-18 -5 -36 -49 -24 -60 3 -4 6 4 6 17 0 22 1 23 20 5 11
-10 17 -21 15 -25 -3 -4 2 -10 10 -14 8 -3 17 -1 20 4 4 6 1 10 -5 10 -7 0 -9
8 -5 19 6 19 -3 52 -14 50 -3 -1 -14 -3 -23 -6z"/>
<path d="M8468 4553 c7 -3 16 -2 19 1 4 3 -2 6 -13 5 -11 0 -14 -3 -6 -6z"/>
<path d="M8221 4484 c0 -11 3 -14 6 -6 3 7 2 16 -1 19 -3 4 -6 -2 -5 -13z"/>
<path d="M503 4462 c-18 -11 1 -36 22 -28 9 3 15 11 13 18 -5 15 -20 20 -35
10z"/>
<path d="M530 4406 c18 -16 70 -30 70 -18 0 17 -25 32 -54 32 -26 0 -28 -2
-16 -14z"/>
<path d="M982 4295 c-77 -87 -132 -224 -132 -324 0 -82 8 -88 63 -46 112 85
208 415 122 415 -7 0 -31 -20 -53 -45z m68 15 c0 -5 -4 -10 -10 -10 -5 0 -10
5 -10 10 0 6 5 10 10 10 6 0 10 -4 10 -10z"/>
<path d="M5290 4247 c0 -1 9 -26 20 -55 27 -70 26 -152 -3 -222 -50 -121 -157
-240 -277 -310 -97 -56 -194 -132 -219 -173 -54 -89 -39 -150 78 -315 33 -45
39 -88 19 -125 -29 -55 -57 -52 -115 11 -18 20 -36 33 -39 29 -11 -11 16 -63
48 -93 58 -56 72 -112 44 -179 -17 -40 -54 -64 -67 -44 -5 8 -9 23 -9 33 0 31
-48 86 -75 86 -37 0 -56 -11 -66 -38 -11 -29 16 -95 55 -131 22 -21 28 -22 82
-12 81 15 86 15 121 -18 29 -26 38 -47 57 -134 5 -22 12 -28 28 -25 27 4 77
74 78 108 0 19 16 36 61 70 33 25 64 44 67 43 4 -1 16 -5 27 -9 19 -7 19 -7 3
13 -24 26 -23 40 5 54 12 7 48 34 79 61 l58 50 -24 31 c-58 80 -116 220 -116
282 0 17 26 46 94 105 l94 81 10 77 c9 74 9 78 -15 115 -14 20 -28 37 -32 37
-3 1 -26 18 -50 39 l-44 39 46 94 c53 105 72 188 63 267 -7 56 -48 146 -72
155 -8 3 -14 4 -14 3z m-236 -812 c3 -8 1 -15 -4 -15 -6 0 -10 7 -10 15 0 8 2
15 4 15 2 0 6 -7 10 -15z"/>
<path d="M7783 4175 c0 -8 4 -12 9 -9 4 3 8 9 8 15 0 5 -4 9 -8 9 -5 0 -9 -7
-9 -15z"/>
<path d="M1388 4040 c-16 -16 -34 -30 -39 -30 -5 0 -9 -8 -9 -18 0 -23 -33
-55 -45 -45 -4 5 -5 3 -1 -4 3 -6 -6 -33 -22 -60 -70 -122 -60 -134 14 -16 55
90 108 160 137 185 11 10 15 18 8 18 -7 0 -26 -13 -43 -30z"/>
<path d="M1419 3973 c-36 -73 -77 -136 -129 -200 -11 -13 -3 -43 12 -43 5 0 6
5 3 10 -4 6 9 31 29 55 20 24 36 48 36 55 0 6 4 9 9 6 9 -6 26 27 56 107 24
63 14 69 -16 10z"/>
<path d="M8135 4009 c-4 -6 -5 -13 -2 -16 7 -7 27 6 27 18 0 12 -17 12 -25 -2z"/>
<path d="M452 3924 c-39 -67 -48 -107 -46 -194 1 -36 0 -73 -3 -83 -5 -19 -25
-13 -21 6 3 13 -43 97 -53 97 -18 0 -14 -42 5 -72 12 -18 28 -48 36 -66 13
-32 12 -35 -16 -58 -31 -27 -26 -37 24 -50 25 -7 24 -31 -1 -26 -11 2 -15 -2
-11 -11 3 -10 -5 -20 -25 -28 -44 -20 -28 -29 21 -12 23 8 50 12 60 10 11 -3
18 0 18 9 0 8 5 14 10 14 6 0 -1 12 -15 28 -22 23 -25 33 -19 67 3 22 8 42 11
45 2 2 19 -13 38 -35 30 -35 33 -37 29 -15 -4 17 -3 21 4 12 10 -14 25 4 50
61 6 15 17 38 23 51 7 15 10 61 7 118 -3 75 -8 102 -29 138 -35 65 -57 64 -97
-6z m58 36 c0 -5 -4 -10 -10 -10 -5 0 -10 5 -10 10 0 6 5 10 10 10 6 0 10 -4
10 -10z"/>
<path d="M7665 3970 c-3 -5 -2 -10 4 -10 5 0 13 5 16 10 3 6 2 10 -4 10 -5 0
-13 -4 -16 -10z"/>
<path d="M1373 3955 c-3 -9 -3 -18 -1 -21 3 -3 8 4 11 16 6 23 -1 27 -10 5z"/>
<path d="M7240 3910 c8 -5 20 -10 25 -10 6 0 3 5 -5 10 -8 5 -19 10 -25 10 -5
0 -3 -5 5 -10z"/>
<path d="M8055 3909 c-11 -17 1 -21 15 -4 8 9 8 15 2 15 -6 0 -14 -5 -17 -11z"/>
<path d="M1230 3894 c0 -11 -8 -35 -18 -54 -11 -19 -32 -60 -48 -90 -16 -30
-32 -56 -36 -58 -5 -2 -8 -9 -8 -15 0 -14 -47 -67 -59 -67 -4 0 -13 -10 -19
-22 -8 -18 -11 -19 -11 -5 -1 9 -5 17 -11 17 -13 0 -13 -10 1 -49 9 -26 8 -35
-3 -49 -8 -9 -19 -24 -23 -32 -8 -13 -7 -13 8 -1 15 12 17 11 17 -2 0 -13 5
-11 25 7 27 25 35 47 10 26 -31 -25 -26 0 11 57 56 88 115 190 153 266 26 52
32 70 23 79 -9 9 -12 7 -12 -8z"/>
<path d="M708 3773 c3 -104 -6 -205 -23 -258 -3 -11 5 2 19 28 14 27 22 56 19
64 -4 9 -2 14 3 11 5 -4 9 15 9 40 1 26 5 67 10 91 6 36 5 42 -5 36 -10 -6
-12 -4 -7 8 6 17 -9 83 -21 91 -4 2 -6 -48 -4 -111z"/>
<path d="M7807 3866 c-6 -16 2 -28 14 -20 12 7 11 34 0 34 -5 0 -11 -6 -14
-14z"/>
<path d="M645 3837 c-8 -20 -15 -53 -15 -74 0 -21 -4 -33 -8 -26 -9 15 -5
-111 6 -163 7 -32 10 -17 15 86 4 69 11 143 17 165 12 51 4 58 -15 12z"/>
<path d="M1309 3853 c-32 -39 -44 -57 -32 -50 13 8 57 67 50 67 -2 0 -10 -8
-18 -17z"/>
<path d="M7949 3842 c-1 -4 -2 -32 -4 -62 -1 -30 -11 -101 -22 -158 -12 -59
-17 -105 -11 -108 15 -10 38 17 38 45 0 14 6 64 14 111 27 163 27 176 6 177
-11 1 -21 -1 -21 -5z"/>
<path d="M1390 3815 c-7 -8 -17 -12 -22 -9 -6 4 -8 -2 -3 -15 5 -16 3 -20 -8
-15 -10 3 -21 -9 -35 -37 -12 -24 -19 -45 -15 -48 3 -4 8 0 10 7 6 17 30 15
37 -3 3 -10 -1 -15 -12 -15 -10 0 -27 -7 -38 -16 -18 -15 -17 -15 11 -8 17 3
73 12 125 18 77 10 91 14 75 23 -11 5 -48 9 -82 8 -39 -2 -69 2 -80 10 -17 13
-17 15 3 37 25 27 58 78 51 78 -2 0 -10 -7 -17 -15z"/>
<path d="M821 3804 c0 -11 3 -14 6 -6 3 7 2 16 -1 19 -3 4 -6 -2 -5 -13z"/>
<path d="M1598 3768 c-29 -25 -57 -75 -52 -95 4 -13 -3 -30 -19 -47 -16 -17
-27 -44 -31 -76 -7 -55 -16 -60 -46 -28 -19 20 -24 21 -65 10 -55 -15 -115
-15 -151 -2 -28 11 -88 -2 -100 -22 -4 -7 0 -7 12 -1 24 12 92 7 110 -8 8 -7
40 -9 89 -6 82 5 98 -3 100 -50 1 -36 -62 -67 -137 -66 l-56 1 13 -38 c8 -22
18 -47 24 -58 7 -13 6 -27 -5 -47 -35 -68 -32 -204 6 -276 11 -20 30 -26 30
-9 0 6 20 46 45 90 25 44 45 86 45 95 0 9 7 18 15 21 9 4 15 19 16 38 1 59 24
169 37 174 6 2 12 -2 12 -10 1 -7 7 -26 13 -42 l13 -30 47 80 c88 146 126 324
84 388 -20 29 -27 31 -49 14z m-130 -286 c2 -7 -2 -10 -12 -6 -9 3 -16 11 -16
16 0 13 23 5 28 -10z"/>
<path d="M1123 3722 c-1 -22 0 -24 9 -8 6 10 6 22 2 26 -5 5 -10 -3 -11 -18z"/>
<path d="M1249 3724 c-23 -25 -23 -26 -2 -15 23 12 38 29 31 37 -3 2 -15 -8
-29 -22z"/>
<path d="M671 3670 l2 -65 7 55 c4 30 3 59 -1 65 -5 5 -8 -19 -8 -55z"/>
<path d="M1260 3664 c-13 -13 -20 -24 -14 -24 12 0 50 38 43 44 -2 2 -15 -7
-29 -20z"/>
<path d="M7365 3659 c-108 -8 -140 -17 -225 -58 -126 -61 -166 -91 -122 -91
11 0 51 -22 90 -50 73 -51 186 -111 282 -149 30 -12 82 -42 115 -66 33 -25 63
-45 68 -45 4 0 20 11 35 25 36 33 58 32 70 -5 9 -26 8 -31 -9 -40 -25 -14 -24
-28 4 -32 15 -2 22 -10 21 -24 0 -16 5 -20 23 -16 14 3 23 0 23 -9 0 -7 3 -9
6 -6 10 9 45 -13 39 -24 -4 -5 -10 -7 -14 -4 -5 2 -13 -7 -19 -20 -7 -15 -20
-25 -32 -25 -13 0 -20 -7 -20 -20 0 -14 -7 -20 -21 -20 -30 0 -89 -62 -89 -93
0 -14 5 -29 10 -32 15 -9 40 14 33 31 -4 10 0 12 13 7 13 -5 15 -3 9 7 -5 9
-4 11 3 6 14 -9 -2 -46 -19 -46 -6 0 -8 -7 -5 -17 10 -24 -181 -338 -205 -338
-5 0 -18 -15 -29 -32 -11 -18 -26 -33 -33 -33 -18 0 -37 21 -37 41 0 25 41 71
59 66 14 -3 16 7 16 64 0 37 -3 62 -7 56 -4 -7 -8 -22 -8 -35 0 -23 -45 -82
-63 -82 -6 0 -5 5 1 13 6 6 11 17 11 22 1 9 32 67 78 148 17 29 16 68 -1 114
-8 21 -17 70 -19 108 -3 39 -12 84 -21 100 -9 17 -16 35 -16 42 0 15 -59 83
-72 83 -5 0 -7 -4 -4 -8 10 -16 -13 -76 -54 -142 -26 -42 -40 -58 -40 -44 0
11 5 25 12 32 9 9 9 12 0 12 -19 0 -14 63 8 119 l20 51 -33 15 c-23 12 -27 12
-14 2 21 -17 22 -47 2 -73 -14 -18 -15 -18 -13 11 1 17 -3 39 -9 50 -6 11 -8
25 -6 32 2 6 -5 17 -17 23 -17 9 -21 8 -26 -7 -8 -27 -22 -54 -45 -90 -18 -29
-40 -103 -22 -76 12 18 50 -18 60 -58 6 -19 8 -50 5 -70 -4 -36 -4 -37 -38
-26 -18 6 -43 19 -53 29 -23 21 -31 23 -31 7 0 -13 24 -36 75 -70 30 -21 35
-30 37 -66 1 -24 2 -56 3 -73 2 -27 -1 -30 -28 -30 -36 0 -117 37 -117 53 0
16 -20 -14 -20 -30 0 -7 3 -12 8 -11 14 3 107 -43 130 -64 12 -12 22 -30 22
-40 0 -11 4 -28 10 -38 9 -16 4 -19 -40 -25 -63 -9 -110 1 -111 23 -1 21 -6
47 -18 97 -10 36 -10 33 -6 -26 l5 -66 -31 -7 c-23 -4 -38 -1 -50 10 -9 8 -26
14 -36 13 -45 -7 -60 9 -71 79 -7 43 -8 70 -2 76 6 6 10 22 10 37 0 14 14 52
31 84 28 52 30 62 24 120 l-7 63 -27 -31 -28 -30 7 49 c3 27 13 62 22 79 15
27 14 32 -5 71 l-20 42 -28 -41 c-15 -22 -24 -47 -21 -56 5 -14 3 -14 -10 -3
-23 19 -32 -2 -13 -31 16 -24 11 -57 -7 -57 -6 0 -5 -7 2 -15 20 -25 5 -27
-23 -4 -22 16 -27 17 -27 5 0 -8 14 -24 30 -36 17 -12 30 -25 30 -29 0 -5 -22
-8 -49 -7 -33 1 -57 -4 -72 -15 l-23 -17 27 5 c22 4 27 2 27 -16 0 -17 -6 -21
-30 -21 -20 0 -30 5 -30 15 0 8 -7 15 -15 15 -8 0 -15 -4 -15 -10 0 -5 -13
-10 -29 -10 -17 0 -33 5 -36 10 -10 16 -28 12 -21 -5 4 -12 0 -15 -17 -14 -47
4 -60 0 -47 -15 12 -15 61 -35 140 -56 25 -7 61 -19 82 -27 20 -8 41 -12 47
-8 6 3 10 3 9 -2 -2 -4 18 -28 45 -52 38 -35 47 -50 47 -77 0 -39 -1 -39 -38
-20 -15 7 -124 48 -242 91 -210 75 -411 163 -469 204 -16 12 -33 21 -38 21 -5
0 -41 -31 -79 -69 -66 -65 -86 -98 -59 -98 6 0 32 -14 57 -31 40 -28 135 -75
226 -113 17 -8 32 -16 32 -20 0 -3 -18 -21 -41 -40 -87 -72 -85 -69 -69 -79
14 -9 43 7 87 49 12 12 29 21 37 21 8 0 18 5 21 10 5 7 11 8 19 1 7 -6 26 -7
48 -2 30 7 40 5 54 -10 16 -18 16 -19 -2 -19 -18 -1 -18 -1 0 -15 11 -9 15
-18 10 -27 -5 -7 -9 -25 -10 -40 -1 -24 1 -26 17 -18 10 6 21 15 24 20 3 6 11
10 16 10 16 0 4 -77 -14 -98 -16 -18 -16 -19 8 -30 14 -6 25 -15 25 -20 0 -5
19 -14 43 -21 23 -7 52 -22 65 -34 19 -18 26 -19 42 -9 22 14 50 16 50 4 0 -4
-13 -16 -30 -25 -30 -18 -35 -32 -24 -61 7 -18 28 -10 69 28 22 21 25 28 15
45 -9 17 -8 22 5 27 8 3 15 15 15 26 0 14 5 18 15 14 8 -3 22 -9 30 -12 12 -5
15 2 15 32 l0 37 -23 -21 c-42 -40 -50 -22 -14 33 23 37 42 41 42 9 0 -14 6
-18 24 -16 20 3 23 0 19 -20 -3 -12 -9 -31 -13 -42 -8 -17 -7 -18 16 -3 13 8
34 18 47 22 37 11 28 -29 -12 -50 -19 -10 -32 -24 -30 -30 3 -6 -13 -17 -36
-25 -27 -9 -36 -16 -28 -21 10 -6 7 -13 -9 -29 -26 -24 -63 -27 -63 -4 0 8 -4
13 -9 10 -5 -3 -8 -17 -8 -31 0 -21 3 -24 20 -19 14 4 17 3 12 -6 -4 -7 -1
-16 6 -21 12 -7 11 -11 -3 -25 -14 -14 -20 -15 -32 -5 -8 7 -20 10 -27 6 -8
-5 -9 -1 -5 13 6 19 5 20 -31 9 -21 -6 -40 -12 -42 -13 -1 -2 6 -30 18 -63 26
-74 27 -106 5 -97 -8 3 -12 2 -9 -4 7 -12 -44 -13 -62 -2 -6 4 -17 30 -24 57
-16 67 -25 74 -40 32 l-12 -35 -40 29 c-43 31 -75 37 -95 17 -10 -10 -15 -10
-22 2 -5 8 -10 11 -10 5 0 -6 -3 -6 -8 1 -4 6 -22 14 -41 17 -29 6 -33 4 -28
-11 2 -9 6 -23 8 -31 5 -17 -37 -30 -101 -32 -80 -3 -91 0 -122 34 -17 17 -32
28 -34 22 -7 -17 -301 -9 -356 9 -39 14 -93 16 -310 15 l-263 -1 55 -27 c30
-14 101 -46 158 -70 56 -24 101 -45 99 -47 -2 -3 -36 2 -74 10 -84 18 -352 52
-480 61 -90 6 -94 6 -159 -26 -110 -54 -201 -51 -280 12 -36 28 -40 29 -145
29 -364 0 -836 -64 -1159 -157 -128 -36 -371 -126 -493 -182 -38 -17 -77 -31
-86 -31 -9 0 -52 19 -94 43 -68 37 -76 45 -77 72 -1 27 -4 25 -15 -12 -3 -8
-31 0 -87 26 -46 21 -105 46 -133 56 -54 20 -150 82 -224 146 -25 22 -62 47
-81 57 -31 15 -35 21 -33 52 1 31 0 33 -11 17 -7 -9 -18 -17 -25 -17 -32 0 2
-36 59 -62 19 -9 69 -43 110 -77 41 -33 78 -61 83 -61 16 0 6 -30 -10 -30 -10
0 -46 -9 -80 -20 -39 -12 -96 -20 -153 -21 -50 -1 -93 -6 -96 -11 -4 -6 25 -7
67 -4 68 5 70 4 29 -5 -62 -15 -209 -85 -216 -104 -9 -23 -29 -18 -44 10 l-14
25 -28 -27 c-16 -15 -26 -33 -24 -40 3 -7 1 -15 -4 -18 -6 -4 -10 -16 -11 -28
0 -21 -1 -21 -9 -2 -8 18 -9 17 -9 -7 -1 -15 -5 -30 -11 -33 -14 -9 -12 -55 3
-55 9 0 8 -3 -2 -9 -9 -6 -10 -10 -2 -16 13 -8 41 12 41 29 0 6 9 19 20 29 12
10 18 22 15 28 -4 5 -4 28 0 49 6 34 11 40 31 40 23 0 31 -10 18 -23 -10 -10
-12 -127 -3 -166 5 -21 3 -43 -3 -55 -10 -20 -9 -20 13 1 18 18 23 34 24 75
l0 52 66 12 c37 7 86 22 109 34 48 24 130 98 193 174 l42 49 -40 -6 c-56 -9
-23 9 54 28 44 12 66 13 80 6 11 -6 52 -23 93 -37 103 -37 358 -164 358 -179
0 -7 -46 -35 -102 -63 -57 -28 -157 -81 -223 -119 l-120 -70 -5 -121 c-3 -66
-8 -123 -10 -125 -3 -3 -43 -20 -90 -38 -190 -72 -411 -231 -512 -367 l-40
-54 21 -56 c26 -74 41 -151 41 -213 0 -59 3 -59 84 19 73 71 248 185 384 252
l112 54 0 112 c0 78 4 115 13 122 19 16 311 164 407 207 47 21 110 49 140 63
68 31 266 102 284 102 7 0 30 -33 51 -73 35 -68 83 -132 93 -122 2 2 -5 16
-15 32 -11 15 -55 105 -98 200 l-78 172 -27 -14 c-35 -18 -100 -91 -100 -111
0 -12 5 -15 23 -9 12 4 38 9 57 11 l35 5 -40 -17 c-64 -26 -94 -29 -101 -10
-16 42 50 118 131 152 33 13 39 13 60 0 12 -8 25 -27 29 -43 11 -48 79 -223
86 -223 4 0 10 24 13 53 10 79 76 205 138 261 53 47 93 66 110 49 13 -13 -27
-87 -78 -141 l-45 -47 36 50 c35 48 76 118 76 130 0 19 -35 -2 -70 -43 -99
-111 -163 -319 -134 -429 13 -47 24 -20 25 60 1 135 27 186 96 187 17 0 25 -9
33 -40 16 -61 34 -65 163 -39 62 12 120 22 130 21 9 0 16 2 13 6 -2 4 15 8 37
10 95 7 110 11 139 32 23 17 36 20 56 14 15 -5 87 -7 161 -6 130 2 136 3 180
31 l45 30 28 -20 c15 -11 29 -23 32 -27 3 -5 157 -7 232 -3 6 1 26 15 44 31
18 17 40 30 48 30 23 0 8 -62 -26 -112 -35 -52 -43 -73 -36 -93 8 -19 24 -9
24 15 0 10 11 32 25 48 24 29 94 158 95 175 0 4 -16 7 -35 7 -58 0 -44 46 25
80 19 9 16 5 -10 -18 -40 -34 -36 -47 10 -37 26 6 40 20 69 68 47 79 84 117
113 117 33 0 48 -18 48 -57 0 -41 -50 -94 -114 -118 -39 -15 -51 -27 -82 -82
-20 -36 -34 -67 -31 -69 2 -3 25 0 51 7 94 24 196 -5 196 -56 0 -26 -33 -55
-62 -55 -24 0 -23 17 1 25 11 3 23 16 27 27 19 60 -109 64 -216 7 -65 -35
-106 -77 -98 -100 3 -8 20 2 49 29 53 49 113 78 159 77 30 0 34 -4 44 -40 7
-23 19 -41 28 -43 24 -5 75 24 94 53 10 15 31 27 61 33 45 10 56 10 83 -1 39
-15 126 -37 150 -37 15 0 34 8 43 18 9 10 29 19 45 20 24 2 32 -3 42 -28 14
-34 41 -53 80 -56 52 -6 277 -67 311 -84 38 -21 139 44 166 108 16 37 15 37
153 -10 168 -59 544 -235 723 -340 l67 -39 1 -102 0 -102 81 -40 c81 -40 108
-58 108 -76 0 -5 -7 -9 -15 -9 -9 0 -15 -9 -15 -25 0 -16 6 -25 15 -25 11 0
15 -13 15 -54 0 -62 14 -79 62 -74 25 2 34 8 36 24 2 16 -2 20 -20 20 -20 -1
-23 4 -26 42 -3 39 -1 42 22 44 14 0 32 1 38 2 9 1 12 -12 10 -40 -3 -33 2
-45 25 -68 26 -26 32 -28 85 -23 55 5 59 3 93 -29 45 -42 53 -42 47 -4 -4 25
-1 30 17 30 19 0 21 6 21 50 0 66 18 66 60 0 26 -41 37 -50 61 -50 16 0 29 3
29 6 0 3 -13 25 -30 49 -16 24 -30 46 -30 49 0 3 11 16 25 30 49 49 21 113
-53 123 -39 5 -49 13 -97 73 -67 84 -125 136 -239 212 -102 68 -197 117 -273
142 l-52 17 -3 122 -3 121 -52 31 c-29 16 -53 33 -53 36 0 4 14 9 30 13 20 3
37 16 48 36 24 41 45 40 37 -3 -7 -37 11 -60 58 -71 21 -5 33 -1 53 19 14 14
32 25 40 25 8 0 34 -18 59 -41 37 -34 52 -41 96 -45 59 -5 77 -13 59 -24 -8
-5 4 -11 31 -15 72 -12 125 -41 192 -103 57 -53 72 -62 133 -75 47 -11 74 -23
86 -39 16 -22 18 -22 18 -3 0 16 5 12 24 -15 13 -19 33 -42 44 -51 20 -17 122
-37 122 -24 0 3 -11 21 -24 38 -21 28 -46 93 -59 152 -3 12 -5 8 -6 -12 -1
-29 -4 -33 -30 -33 -18 0 -44 12 -70 34 -49 41 -71 63 -71 70 0 14 99 4 133
-13 20 -10 37 -18 37 -17 -3 26 -36 87 -63 117 -20 21 -45 58 -55 82 -10 23
-27 61 -37 84 -9 23 -34 57 -54 75 -20 18 -46 47 -58 63 -12 17 -23 25 -23 18
0 -6 5 -15 10 -18 19 -12 10 -22 -32 -35 -24 -8 -73 -27 -110 -42 -70 -29
-151 -43 -145 -24 2 6 16 10 31 8 31 -3 33 3 6 18 -17 9 -24 7 -39 -11 -12
-16 -24 -20 -36 -15 -17 6 -17 8 6 20 13 7 50 29 82 50 68 44 140 76 170 76
16 0 18 3 9 12 -9 9 -28 9 -85 -1 -120 -23 -133 -23 -190 -11 -54 11 -55 11
-54 46 1 28 10 43 44 75 49 45 67 47 120 17 l38 -22 -26 26 c-43 41 -19 118
37 118 22 0 23 -3 18 -44 -7 -47 2 -116 14 -116 4 0 5 27 4 60 -3 39 0 60 7
60 6 0 11 -4 11 -9 0 -5 11 -12 25 -15 20 -5 25 -13 26 -39 1 -17 1 -35 0 -39
0 -5 6 -8 15 -8 8 0 12 4 9 10 -3 5 -3 15 0 20 4 6 21 -2 41 -20 52 -45 59
-40 59 37 0 54 4 73 21 93 21 26 47 90 40 98 -9 8 -26 -10 -26 -28 0 -13 -5
-17 -20 -13 -25 7 -49 45 -31 51 6 2 11 10 11 17 0 8 10 20 22 26 l22 12 -22
8 c-12 5 -22 15 -22 23 0 11 5 12 25 3 14 -7 25 -18 25 -24 0 -7 6 -13 14 -13
8 0 16 -6 19 -12 2 -7 8 -9 13 -5 5 4 2 12 -6 17 -11 7 -7 16 22 44 34 33 37
34 43 15 4 -11 1 -27 -6 -35 -6 -8 -10 -17 -7 -19 13 -13 32 31 29 65 -3 51
23 79 67 72 18 -2 34 -12 37 -22 6 -20 -9 -65 -25 -75 -9 -6 -9 -10 1 -16 22
-14 29 -11 29 11 0 21 15 27 25 10 4 -6 10 -8 14 -6 9 6 55 -34 48 -41 -3 -2
-20 3 -39 11 -18 9 -24 11 -13 4 11 -7 40 -33 64 -58 41 -42 43 -43 27 -13 -9
18 -16 40 -16 49 0 16 2 15 19 -3 11 -12 24 -23 30 -24 6 -2 11 -31 13 -64 l3
-59 76 -57 c48 -37 88 -77 110 -111 19 -29 59 -80 89 -114 30 -33 65 -73 77
-90 l22 -29 0 72 1 71 -45 26 c-24 15 -50 37 -57 49 -9 16 -35 80 -38 93 0 0
20 -1 45 -2 57 -4 85 -19 86 -47 0 -16 7 -8 25 28 13 28 23 57 23 65 0 8 -7 0
-15 -18 -14 -32 -15 -32 -44 -17 -16 8 -35 15 -42 15 -22 0 -98 32 -98 42 0 6
-9 22 -20 38 l-20 28 31 6 c66 13 153 7 187 -14 39 -24 42 -24 42 -6 0 26 -93
56 -174 56 -87 0 -106 5 -106 31 0 10 -5 19 -11 19 -7 0 -9 -9 -6 -22 6 -23 6
-22 -14 2 l-21 24 39 17 c67 28 181 52 218 45 40 -8 54 -28 65 -95 7 -40 8
-42 9 -13 1 44 -35 184 -60 234 -21 41 -71 78 -104 78 -18 -1 -17 -2 5 -15 19
-11 21 -14 8 -15 -10 0 -60 -19 -110 -42 -106 -47 -155 -55 -179 -27 -9 10
-19 16 -23 12 -3 -3 -6 -2 -6 4 0 21 161 113 197 113 9 0 31 -9 49 -21 41 -25
45 -16 7 15 -47 38 -92 59 -78 37 3 -5 -5 -13 -17 -17 -13 -4 -58 -24 -100
-45 -77 -37 -106 -37 -71 0 10 10 29 24 42 31 22 11 23 11 17 -6 -5 -14 -1
-12 17 6 12 14 22 27 21 29 -4 4 -108 -22 -114 -29 -3 -3 -17 -13 -32 -23 -34
-21 -61 -13 -52 17 15 46 14 50 -2 29 -22 -30 -42 -29 -56 2 -13 28 5 60 28
51 12 -5 13 7 5 42 -1 2 -11 -8 -23 -22 -28 -30 -71 -45 -62 -22 4 11 1 16
-10 16 -15 0 -15 3 -2 28 20 38 48 61 53 45 3 -7 9 -13 15 -13 6 0 7 7 4 16
-4 9 20 60 60 127 36 62 69 119 74 127 4 8 24 18 45 21 21 4 44 15 52 24 20
28 8 30 -29 4 l-33 -23 24 27 c14 15 31 27 38 27 9 0 11 8 7 26 -5 19 -4 25 5
20 6 -4 11 -13 11 -21 0 -8 7 -11 19 -8 11 3 18 10 16 16 -5 14 33 62 42 53 3
-3 -2 -15 -12 -26 -10 -11 -15 -23 -12 -26 10 -11 37 17 37 37 0 11 4 19 10
19 5 0 7 -7 4 -15 -4 -10 0 -15 10 -15 10 0 16 7 14 16 -6 35 19 23 35 -16 8
-22 20 -40 26 -40 15 0 13 20 -4 50 -17 29 -20 70 -5 70 11 0 26 47 21 68 -1
8 5 12 15 10 14 -2 20 -20 30 -85 12 -84 41 -143 70 -143 11 0 9 10 -11 43
-18 32 -27 64 -31 118 -6 71 -5 74 18 85 28 12 48 8 48 -11 0 -7 6 -18 14 -24
11 -9 56 -168 56 -197 0 -2 -9 -4 -21 -4 -11 0 -17 -4 -14 -10 3 -5 16 -10 29
-10 12 0 26 -4 32 -9 5 -6 29 -13 54 -16 45 -5 45 -5 13 7 -66 26 -72 39 -99
192 -6 36 -5 39 15 33 11 -3 19 -1 15 4 -3 5 -13 9 -24 9 -10 0 -20 7 -24 15
-10 28 28 16 60 -17 20 -22 34 -52 42 -88 16 -69 51 -134 77 -139 19 -3 19 -2
3 16 -24 26 -46 82 -51 131 -3 22 -8 47 -13 54 -11 20 8 -2 40 -44 15 -21 33
-38 39 -38 18 0 50 -57 37 -65 -18 -11 -11 -26 8 -16 34 17 120 41 146 41 31
0 32 7 6 40 -12 15 -20 20 -20 11 0 -10 -7 -8 -23 7 -13 12 -26 20 -29 17 -3
-3 -11 1 -18 10 -7 8 -22 15 -34 16 -13 0 -4 7 23 16 42 15 45 15 59 -3 13
-17 14 -15 7 21 -3 22 -17 51 -30 65 -13 14 -37 57 -52 95 -25 62 -33 72 -70
90 -23 11 -55 32 -70 45 -78 69 -131 68 -238 -4 -20 -14 -48 -27 -63 -31 -23
-5 -30 -13 -38 -48 -5 -23 -13 -42 -19 -42 -5 0 -16 -4 -24 -9 -8 -5 -16 -4
-21 4 -6 10 -9 9 -13 -1 -3 -8 -6 -2 -6 13 -1 15 4 39 9 53 8 22 13 25 24 16
9 -8 17 -8 20 -2 3 5 1 11 -6 13 -6 2 -9 12 -5 21 5 13 13 16 31 11 15 -3 33
0 46 9 20 14 20 15 3 22 -10 5 -22 7 -27 6 -15 -3 3 61 22 76 16 13 15 14 -5
8 -13 -4 -23 -2 -23 2 0 5 -6 17 -13 28 -13 16 -14 15 -9 -13 3 -27 0 -33 -21
-41 -14 -5 -32 -20 -40 -31 -18 -26 -39 -18 -35 12 2 12 -2 23 -8 25 -7 2 -11
-7 -11 -23 0 -14 -6 -30 -13 -34 -7 -4 -10 -12 -6 -18 4 -7 -5 -7 -29 -1 -19
6 -40 7 -45 4 -5 -3 -17 6 -26 20 -9 13 -19 23 -23 21 -4 -3 -7 5 -7 17 -1 89
-4 98 -35 115 -17 9 -50 32 -74 50 -48 35 -54 36 -230 21z m185 -19 c16 -16
20 -33 20 -86 0 -36 -5 -85 -11 -109 l-11 -43 -34 20 c-39 23 -42 31 -47 151
l-3 87 33 0 c20 0 41 -8 53 -20z m-245 -51 c4 -16 8 -54 9 -83 2 -42 -1 -53
-11 -49 -9 3 -11 13 -7 25 4 13 2 18 -4 14 -13 -8 -75 51 -89 86 -11 25 -10
27 30 40 48 16 63 10 72 -33z m124 37 c13 -15 25 -196 13 -196 -4 0 -13 5 -20
12 -8 8 -12 9 -12 1 0 -6 6 -13 13 -16 25 -9 -3 -19 -37 -13 -42 8 -46 19 -51
127 -2 43 -7 84 -10 89 -10 16 91 12 104 -4z m239 -49 c20 -15 14 -93 -14
-183 -24 -76 -28 -83 -46 -73 -33 18 -38 52 -23 134 8 42 15 94 15 116 0 38 0
38 28 27 15 -7 33 -16 40 -21z m-483 -9 c15 -22 14 -23 -7 -30 -44 -12 -55 -9
-54 15 1 19 16 34 38 36 4 1 14 -9 23 -21z m39 -64 c3 -9 6 -32 6 -52 l0 -36
-35 34 c-39 38 -44 56 -17 63 32 9 40 7 46 -9z m55 -51 c6 -16 27 -39 46 -52
49 -33 48 -57 -1 -36 -20 8 -38 15 -40 15 -5 0 -19 36 -28 73 -3 15 -2 27 3
27 5 0 14 -12 20 -27z m441 -33 c0 -5 -6 -15 -13 -22 -8 -7 -17 -26 -21 -42
-4 -15 -10 -26 -13 -23 -8 9 29 107 39 101 4 -3 8 -9 8 -14z m544 2 c3 -5 -14
-19 -37 -32 -23 -13 -61 -42 -84 -63 -37 -34 -43 -37 -43 -19 0 11 -7 22 -15
26 -25 9 -17 20 41 59 55 36 124 50 138 29z m-304 -15 c0 -2 -9 -12 -19 -21
-19 -17 -19 -17 -14 3 3 12 12 21 19 21 8 0 14 -2 14 -3z m-144 -31 c3 -14 3
-30 -1 -35 -3 -6 -1 -11 4 -11 6 0 11 9 11 20 0 25 4 25 35 -2 37 -32 30 -80
-19 -119 -19 -16 -21 -16 -38 4 -20 23 -22 40 -8 67 8 15 7 18 -3 14 -8 -3
-20 -17 -27 -32 -7 -16 -15 -22 -17 -14 -3 6 -11 12 -18 12 -34 0 -27 49 13
93 32 34 60 35 68 3z m517 -6 l29 -30 -38 -16 c-21 -9 -59 -30 -84 -48 -76
-52 -88 -57 -105 -40 -8 9 -15 19 -15 24 0 16 88 98 126 119 51 26 54 26 87
-9z m-868 10 c4 -6 4 -24 0 -40 -6 -29 -7 -29 -33 -13 -43 27 -62 45 -56 54 7
12 81 11 89 -1z m61 -39 c17 -26 24 -49 22 -68 l-4 -28 -11 26 c-6 15 -18 29
-26 32 -21 8 -31 77 -12 77 3 0 16 -18 31 -39z m554 -50 c0 -6 -34 -26 -83
-49 -4 -2 0 12 9 32 10 19 24 37 33 39 16 4 41 -10 41 -22z m360 -5 c17 -45
16 -60 -5 -63 -11 -2 -51 -13 -88 -25 -64 -20 -69 -21 -85 -4 -15 15 -15 18
-2 27 11 7 7 8 -15 3 -35 -8 -31 -2 38 50 41 30 57 36 98 36 43 0 51 -3 59
-24z m-338 -43 c21 -19 24 -45 4 -37 -10 4 -16 -3 -18 -23 -2 -23 -8 -29 -34
-31 -27 -3 -33 1 -42 27 -11 31 -3 44 43 69 26 15 25 15 47 -5z m-318 -19 c17
-6 13 -47 -7 -71 -6 -9 -6 -13 2 -13 7 0 9 -5 5 -11 -5 -8 -9 -8 -14 1 -4 6
-16 11 -26 10 -36 -4 -43 0 -39 22 5 21 42 68 56 68 4 0 14 -3 23 -6z m166
-13 c13 -25 5 -46 -26 -65 -14 -10 -21 -22 -18 -31 4 -10 11 -12 18 -7 6 5 21
9 33 10 35 1 35 -33 0 -69 l-30 -32 -28 32 c-25 30 -28 31 -33 13 -4 -13 -18
-22 -39 -25 -18 -2 -33 -4 -34 -3 -1 1 4 28 10 61 11 55 14 60 40 63 16 2 35
-2 43 -9 12 -10 17 -8 29 7 17 23 20 43 3 26 -16 -16 -38 -15 -38 2 0 14 36
46 52 46 4 0 12 -9 18 -19z m545 -48 c19 -20 35 -40 35 -44 0 -12 -111 -23
-119 -12 -3 5 -14 12 -24 16 -10 4 -16 11 -12 16 3 5 0 13 -6 17 -8 4 -9 3 -5
-4 8 -14 0 -14 -29 -2 -18 7 -16 9 15 23 88 37 102 36 145 -10z m-1156 -59 c8
-22 11 -51 8 -65 -6 -25 -85 -153 -123 -202 l-22 -27 -6 26 c-10 40 1 77 55
182 27 52 49 104 49 114 0 32 24 14 39 -28z m-558 -145 c-26 -24 -35 -24 -22
0 6 10 8 21 5 24 -3 3 2 17 13 30 l18 25 3 -30 c2 -20 -3 -36 -17 -49z m599
-4 c0 -59 -4 -71 -47 -142 -66 -110 -106 -157 -108 -125 -1 4 -5 18 -9 31 -10
30 12 80 82 186 29 44 55 90 58 102 11 41 24 13 24 -52z m410 46 c0 -12 -20
-25 -27 -18 -7 7 6 27 18 27 5 0 9 -4 9 -9z m-1104 -46 c4 -8 3 -22 0 -30 -5
-14 -9 -14 -36 0 -16 8 -30 22 -30 30 0 20 59 20 66 0z m118 -19 c-3 -9 -10
-16 -15 -16 -5 0 -4 9 3 20 14 22 21 20 12 -4z m-61 -64 c-9 -35 -28 -20 -31
24 l-3 39 20 -20 c14 -14 19 -27 14 -43z m882 38 c-3 -5 -12 -10 -18 -10 -7 0
-6 4 3 10 19 12 23 12 15 0z m-1145 -26 c0 -12 -4 -12 -20 -4 -11 6 -18 15
-15 20 8 13 35 0 35 -16z m54 15 c26 -12 43 -49 22 -49 -7 0 -25 14 -41 30
-30 31 -23 38 19 19z m96 -25 c12 -31 -3 -49 -27 -35 -21 11 -36 45 -25 56 13
12 45 -1 52 -21z m56 -48 c-4 -27 -19 -24 -28 6 -12 45 -10 52 12 33 11 -10
18 -27 16 -39z m704 -102 c-38 -68 -109 -164 -121 -164 -11 0 -19 31 -15 63 2
15 18 51 36 80 19 28 50 79 69 111 l36 59 14 -46 c14 -44 13 -46 -19 -103z
m-890 -170 c9 -43 2 -60 -37 -90 l-36 -27 5 63 c3 46 9 66 23 76 26 19 39 13
45 -22z m54 28 c2 -4 -4 -19 -15 -32 l-19 -25 0 33 c0 30 21 45 34 24z m111
-25 c-1 -17 6 -29 16 -32 24 -8 30 -30 15 -50 -11 -16 -14 -16 -28 -1 -9 8
-18 21 -20 28 -3 9 -9 8 -22 -5 -25 -25 -54 -21 -68 8 -10 21 -9 29 6 43 15
15 18 15 26 2 8 -13 10 -12 10 3 0 24 15 21 27 -5 l10 -22 5 22 c4 12 2 20 -3
16 -5 -3 -9 2 -9 11 0 10 7 15 18 13 11 -2 17 -13 17 -31z m250 23 c-4 -6 -1
-17 5 -25 7 -9 8 -15 2 -15 -15 0 -35 28 -27 40 3 5 11 10 16 10 6 0 7 -5 4
-10z m-105 -4 c0 -2 -7 -6 -15 -10 -8 -3 -15 -1 -15 4 0 6 7 10 15 10 8 0 15
-2 15 -4z m-402 -78 c-3 -61 -4 -63 -31 -66 -28 -3 -29 -2 -22 30 11 50 33 98
45 98 7 0 10 -22 8 -62z m322 37 c-7 -9 -15 -13 -18 -10 -3 2 1 11 8 20 7 9
15 13 18 10 3 -2 -1 -11 -8 -20z m307 12 c12 -2 26 -6 29 -10 4 -4 17 -7 29
-7 36 0 49 -24 25 -45 -11 -10 -20 -23 -20 -29 0 -6 7 -2 15 8 12 16 15 17 15
4 0 -32 -12 -48 -37 -48 -33 0 -109 54 -115 82 -3 13 -9 31 -13 40 -6 15 -3
17 21 13 16 -3 39 -7 51 -8z m-237 -7 c0 -5 -9 -19 -20 -30 -24 -24 -26 -40
-5 -40 8 0 15 9 15 20 0 11 5 20 11 20 7 0 9 -11 6 -30 -4 -16 -3 -32 2 -34 5
-3 11 12 15 34 7 44 10 47 33 25 16 -17 47 -12 74 11 22 19 26 18 32 -12 3
-19 1 -24 -10 -20 -8 3 -30 -1 -49 -9 -26 -11 -34 -20 -34 -39 0 -23 4 -26 35
-26 19 0 35 -4 35 -9 0 -18 -30 -32 -62 -29 -30 3 -33 6 -30 32 3 27 1 28 -25
21 -15 -3 -31 -11 -34 -17 -4 -7 -9 -6 -13 1 -11 17 -39 14 -32 -4 3 -8 1 -15
-3 -15 -15 0 -22 32 -10 47 9 10 9 17 1 25 -17 17 -15 23 14 57 25 30 54 41
54 21z m480 -31 c0 -6 -4 -8 -9 -4 -6 3 -14 -3 -20 -12 -6 -10 -11 -14 -11 -9
0 5 -7 3 -15 -4 -12 -10 -15 -10 -15 3 0 8 11 18 25 21 14 4 25 11 25 17 0 6
5 7 10 4 6 -3 10 -11 10 -16z m-709 -40 c16 -11 29 -28 29 -37 0 -24 -35 -74
-45 -65 -4 5 -5 0 -2 -10 11 -29 -55 -19 -68 11 -5 12 -19 22 -30 22 -18 0
-18 1 3 16 21 15 48 11 37 -6 -6 -10 19 -20 49 -20 19 0 21 4 18 35 -3 29 -6
32 -18 21 -7 -8 -23 -12 -34 -9 -24 6 -26 19 -5 27 8 3 15 12 15 21 0 21 16
19 51 -6z m458 -48 c12 -16 21 -32 21 -35 0 -6 -70 2 -77 9 -5 3 22 55 29 55
4 0 16 -13 27 -29z m-74 9 c-3 -5 -11 -10 -16 -10 -6 0 -7 5 -4 10 3 6 11 10
16 10 6 0 7 -4 4 -10z m376 -43 c-10 -9 -11 -8 -5 6 3 10 9 15 12 12 3 -3 0
-11 -7 -18z m107 -9 c-4 -40 -62 -86 -84 -67 -19 15 -18 49 2 77 11 16 25 22
50 22 34 0 35 -1 32 -32z m72 11 c0 -15 -26 -39 -42 -39 -8 0 -7 4 5 11 9 5
17 17 17 24 0 8 5 15 10 15 6 0 10 -5 10 -11z m46 -15 c8 -31 -28 -74 -63 -74
-28 0 -31 26 -3 33 11 3 25 19 31 36 13 38 26 40 35 5z m-435 -29 c20 -13 -71
-56 -110 -53 -31 3 -36 7 -39 30 -3 28 -1 30 63 41 21 3 66 -6 86 -18z m-295
-59 c-19 -45 -36 -39 -36 14 0 27 6 42 18 49 27 16 37 -18 18 -63z m858 38
c10 -27 7 -44 -9 -44 -9 0 -20 -11 -24 -24 -12 -30 -36 -39 -56 -20 -21 22
-19 54 7 81 25 27 73 31 82 7z m-764 -19 c-7 -9 -15 -13 -18 -10 -3 2 1 11 8
20 7 9 15 13 18 10 3 -2 -1 -11 -8 -20z m1162 -5 c-1 -19 0 -22 8 -10 7 12 12
7 25 -22 25 -60 21 -72 -21 -65 -22 4 -69 -2 -118 -13 -108 -26 -130 -26 -150
5 -16 24 -16 26 1 32 10 3 25 12 33 19 20 17 116 65 149 74 14 4 37 7 51 6 20
-2 25 -7 22 -26z m-867 11 c10 -18 -17 -23 -33 -7 -15 15 -15 16 5 16 12 0 24
-4 28 -9z m240 -12 c4 -5 4 -22 0 -37 l-7 -27 -10 28 c-5 15 -14 27 -19 27 -5
0 -9 5 -9 10 0 13 37 13 45 -1z m-697 -19 c-13 -20 -28 -27 -28 -12 0 10 22
32 32 32 5 0 3 -9 -4 -20z m520 -6 c25 -17 29 -34 7 -34 -8 0 -15 -4 -15 -10
0 -5 6 -10 12 -10 7 0 2 -7 -11 -16 -31 -22 -71 -5 -71 30 0 21 31 56 50 56 3
0 16 -7 28 -16z m126 0 c32 -12 14 -63 -37 -103 -28 -22 -21 6 8 31 29 25 35
71 8 61 -11 -4 -14 -3 -9 5 8 14 9 14 30 6z m-218 -36 c-3 -13 -5 -25 -5 -28
-1 -3 -5 1 -10 9 -10 16 -4 41 10 41 5 0 7 -10 5 -22z m-381 -8 c3 -5 2 -10
-4 -10 -5 0 -13 5 -16 10 -3 6 -2 10 4 10 5 0 13 -4 16 -10z m534 -21 c-9 -5
-15 -4 -18 2 -2 6 3 15 10 20 9 5 15 4 18 -2 2 -6 -3 -15 -10 -20z m-572 -1
c41 -38 23 -51 -32 -22 -27 14 -30 14 -42 -2 -16 -23 -16 -34 0 -34 7 0 13 -9
14 -19 1 -14 -7 -22 -28 -26 -17 -4 -32 -5 -33 -3 -2 1 -6 22 -9 46 -4 36 -2
44 16 54 12 7 32 13 44 13 12 0 25 4 29 8 11 11 16 9 41 -15z m118 -17 c-3
-12 0 -21 10 -25 8 -3 15 -1 15 3 0 5 -4 11 -10 13 -5 2 -6 9 -1 17 7 11 11
10 20 -7 8 -16 7 -42 -6 -111 -10 -50 -20 -91 -23 -91 -3 1 -16 10 -29 21 -24
20 -24 22 -13 82 22 108 24 117 34 117 5 0 7 -8 3 -19z m285 -6 c9 -11 8 -19
-7 -39 -29 -40 -77 -42 -87 -3 -7 26 2 37 14 17 6 -8 10 -10 11 -5 1 6 2 15 4
20 1 6 3 13 3 18 3 13 49 7 62 -8z m100 -15 c0 -5 -2 -10 -4 -10 -3 0 -8 5
-11 10 -3 6 -1 10 4 10 6 0 11 -4 11 -10z m-30 -20 c0 -5 -2 -10 -4 -10 -3 0
-8 5 -11 10 -3 6 -1 10 4 10 6 0 11 -4 11 -10z m-426 -9 c3 -5 -1 -12 -10 -15
-20 -8 -29 -1 -19 13 8 13 22 14 29 2z m181 -11 c14 -15 15 -20 4 -21 -10 0
-11 -2 -1 -6 25 -10 13 -62 -24 -103 -42 -47 -54 -50 -54 -14 0 45 33 164 45
164 7 0 20 -9 30 -20z m281 -7 c-10 -10 -19 5 -10 18 6 11 8 11 12 0 2 -7 1
-15 -2 -18z m-522 -19 c5 -13 15 -15 41 -11 20 3 35 2 35 -4 0 -6 -4 -7 -10
-4 -6 3 -10 -4 -10 -16 0 -15 19 -40 50 -70 28 -26 50 -51 50 -55 0 -9 -96
-83 -152 -119 l-28 -17 0 31 c0 18 -9 40 -20 51 -25 25 -26 86 -4 156 9 27 17
55 20 62 5 17 21 15 28 -4z m471 -14 c12 19 21 10 23 -24 2 -26 -3 -38 -17
-45 -26 -14 -31 -14 -25 3 3 8 1 17 -5 21 -6 3 -14 -1 -17 -9 -7 -19 -24 -11
-24 11 0 26 31 55 46 42 8 -7 14 -7 19 1z m641 -95 c14 -25 25 -48 22 -50 -2
-2 -16 18 -31 46 -35 62 -27 65 9 4z m-66 -42 c0 -3 -7 0 -15 7 -8 7 -15 24
-15 39 1 25 1 25 15 -8 8 -18 15 -36 15 -38z m-1586 16 l37 -32 -50 -17 c-73
-26 -145 -34 -173 -19 -29 15 -108 79 -108 88 0 3 58 7 129 9 l129 3 36 -32z
m436 -1 c0 -5 -4 -7 -9 -3 -5 3 -12 1 -16 -5 -12 -19 -26 -11 -15 10 10 19 40
18 40 -2z m-728 -6 c7 -10 31 -31 53 -47 22 -16 68 -58 102 -93 42 -45 66 -63
77 -59 9 4 16 2 16 -3 0 -5 17 -12 38 -16 39 -7 83 -30 80 -42 -1 -4 1 -25 6
-47 6 -32 4 -41 -10 -52 -28 -20 -47 -16 -153 33 -82 39 -103 53 -119 83 -19
34 -118 133 -173 173 l-24 18 39 35 c45 40 50 41 68 17z m1283 8 c7 -12 -2
-12 -30 0 -19 8 -19 9 2 9 12 1 25 -3 28 -9z m-561 -28 c3 -5 -1 -9 -9 -9 -8
0 -12 4 -9 9 3 4 7 8 9 8 2 0 6 -4 9 -8z m340 -43 c-3 -5 -10 -7 -15 -3 -5 3
-7 10 -3 15 3 5 10 7 15 3 5 -3 7 -10 3 -15z m944 -14 c-3 -3 -9 2 -12 12 -6
14 -5 15 5 6 7 -7 10 -15 7 -18z m-1612 2 c1 -1 4 -14 7 -28 6 -23 2 -28 -36
-43 -23 -10 -68 -20 -100 -23 -58 -6 -58 -6 -97 36 l-38 41 36 1 c20 0 60 6
87 13 39 10 135 11 141 3z m384 -28 c0 -10 -12 -11 -34 -3 -25 10 -19 22 9 16
14 -2 25 -8 25 -13z m-2542 -86 c4 -30 -19 -69 -76 -130 -48 -49 -72 -95 -72
-134 0 -43 39 -12 93 75 22 34 57 65 74 66 7 0 17 -9 23 -21 11 -19 12 -20 24
-3 25 33 29 -6 6 -57 -33 -78 -22 -92 23 -30 50 69 62 57 13 -13 -44 -64 -60
-73 -80 -44 -14 19 -16 19 -31 4 -22 -22 -41 -20 -59 6 l-15 22 -25 -27 c-25
-27 -51 -28 -68 -3 -41 59 83 323 147 314 12 -2 21 -12 23 -25z m2665 7 c-3
-11 -7 -20 -9 -20 -2 0 -4 9 -4 20 0 11 4 20 9 20 5 0 7 -9 4 -20z m-483 -6
c0 -8 -6 -11 -17 -7 -10 3 -15 3 -11 -1 14 -16 -16 -33 -42 -25 -14 5 -38 11
-55 15 -27 6 -28 7 -10 14 33 14 65 11 65 -5 0 -8 8 -15 18 -14 9 0 12 3 5 5
-20 8 -5 29 22 30 15 1 25 -4 25 -12z m60 -8 c0 -3 -4 -8 -10 -11 -5 -3 -10
-1 -10 4 0 6 5 11 10 11 6 0 10 -2 10 -4z m-2594 -21 c10 -26 -4 -61 -47 -115
-43 -54 -73 -125 -64 -148 6 -18 32 12 64 75 26 53 58 83 87 83 49 0 33 -65
-26 -109 -29 -21 -31 -25 -17 -39 14 -14 18 -13 42 2 15 10 40 37 58 62 39 56
48 49 12 -11 -44 -76 -118 -108 -149 -64 l-14 21 -17 -26 c-20 -30 -37 -33
-60 -10 -15 15 -17 15 -34 0 -38 -35 -71 -12 -71 49 0 33 7 50 34 81 31 36 36
38 56 26 12 -7 23 -12 24 -10 2 2 8 18 16 36 19 48 68 112 85 112 9 0 18 -7
21 -15z m2859 5 c3 -5 2 -10 -4 -10 -5 0 -13 5 -16 10 -3 6 -2 10 4 10 5 0 13
-4 16 -10z m-3307 -33 c4 -29 -32 -107 -73 -162 -26 -35 -40 -103 -25 -125 9
-13 13 -11 30 10 11 14 25 41 31 60 25 77 89 128 106 84 5 -15 7 -15 15 0 24
43 38 -4 17 -62 -6 -17 -9 -41 -7 -54 3 -19 10 -11 37 41 42 82 51 73 12 -13
-31 -69 -43 -77 -72 -50 -16 14 -18 14 -29 -5 -13 -25 -42 -27 -60 -6 -17 21
-25 19 -38 -10 -15 -32 -56 -34 -73 -4 -11 21 -11 20 -30 -10 -22 -36 -51 -40
-72 -11 -14 20 -15 20 -27 -10 -14 -33 -40 -39 -60 -15 -15 18 -8 87 15 142
22 51 39 32 26 -28 -6 -24 -10 -60 -10 -79 l0 -35 15 35 c9 19 24 74 34 121
19 91 45 153 79 183 26 23 51 14 51 -19 0 -29 -40 -114 -76 -161 -18 -23 -24
-44 -24 -83 0 -38 4 -51 13 -49 21 7 54 78 61 130 14 104 77 223 115 216 9 -2
17 -15 19 -31z m1540 -10 c2 -18 -7 -37 -33 -66 -30 -33 -38 -50 -40 -91 l-4
-51 40 36 c29 26 48 35 67 33 54 -6 29 -70 -39 -99 -33 -13 -36 -41 -6 -47 27
-5 93 42 123 88 15 22 31 40 35 40 15 0 10 -39 -8 -67 -16 -24 -13 -23 31 10
66 51 100 49 69 -4 -19 -33 -14 -44 17 -34 16 5 20 13 18 33 -2 22 1 27 18 24
14 -2 27 6 39 24 15 24 18 25 33 11 12 -13 13 -19 3 -31 -8 -10 -9 -16 -1 -21
19 -12 10 -25 -17 -26 -20 0 -37 -11 -60 -41 -31 -38 -42 -68 -25 -68 4 0 38
27 75 60 73 64 114 77 124 40 6 -23 19 -26 26 -7 3 9 8 9 17 1 9 -9 2 -24 -29
-65 -23 -30 -41 -57 -41 -61 0 -18 20 -5 56 34 59 66 134 95 134 52 0 -21 16
-17 37 9 26 34 94 77 120 77 56 0 2 -75 -86 -120 -36 -18 -101 -84 -101 -102
0 -16 24 -7 69 25 65 46 74 52 70 39 -7 -19 -112 -92 -132 -92 -10 0 -21 9
-24 20 -5 17 -11 19 -43 14 -33 -5 -39 -3 -45 15 -7 22 -20 27 -30 11 -11 -17
-37 -11 -42 11 -4 14 -11 18 -22 13 -40 -17 -54 -11 -78 35 -1 2 -16 -7 -33
-19 -25 -18 -34 -19 -45 -10 -17 15 -19 43 -5 71 9 16 7 19 -14 19 -19 0 -27
7 -32 26 l-7 26 -51 -51 c-50 -49 -86 -65 -86 -38 0 7 6 19 13 26 8 9 1 8 -20
-3 -38 -19 -84 -21 -101 -4 -7 7 -12 25 -12 40 0 36 -9 35 -45 -2 -36 -37 -78
-38 -83 -2 -4 27 -10 28 -39 1 -18 -18 -25 -20 -38 -9 -22 18 -18 55 10 98 40
60 53 74 64 67 7 -4 -2 -29 -25 -71 -20 -36 -33 -68 -30 -72 10 -9 51 43 82
103 33 64 89 132 128 156 38 23 50 20 54 -14z m3195 -5 c29 -25 19 -34 -13
-10 -16 12 -30 26 -30 30 0 10 16 2 43 -20z m-1060 -12 c-62 -37 -113 -60
-113 -50 0 5 28 23 63 39 72 34 96 39 50 11z m-709 1 c3 -5 -1 -11 -9 -15 -9
-3 -15 0 -15 9 0 16 16 20 24 6z m433 -13 c-3 -8 -6 -5 -6 6 -1 11 2 17 5 13
3 -3 4 -12 1 -19z m-2017 -22 c0 -18 -26 -40 -34 -27 -9 14 4 41 20 41 8 0 14
-6 14 -14z m1610 10 c0 -2 -7 -7 -16 -10 -8 -3 -12 -2 -9 4 6 10 25 14 25 6z
m964 -78 l40 -43 -54 -6 c-30 -4 -90 -14 -133 -23 -71 -14 -80 -14 -111 1
l-34 16 47 25 c59 32 161 71 185 72 11 0 37 -19 60 -42z m-4204 13 c0 -22 -15
-35 -29 -27 -13 9 -1 46 15 46 8 0 14 -9 14 -19z m3583 -25 c3 -9 -4 -21 -19
-30 -13 -9 -24 -15 -25 -14 -9 36 -8 50 6 44 8 -3 15 -1 15 4 0 15 17 12 23
-4z m-123 -22 c0 -14 -3 -14 -15 -4 -8 7 -15 14 -15 16 0 2 7 4 15 4 8 0 15
-7 15 -16z m-1977 -8 c3 -7 -6 -25 -19 -40 -19 -20 -34 -26 -65 -26 -37 0 -39
2 -35 26 3 14 13 32 23 40 24 18 89 18 96 0z m2212 -6 c3 -5 -1 -10 -9 -10 -9
0 -16 5 -16 10 0 6 4 10 9 10 6 0 13 -4 16 -10z m-33 -42 c-7 -7 -12 -8 -12
-2 0 14 12 26 19 19 2 -3 -1 -11 -7 -17z m580 10 c8 -7 20 -27 25 -43 l11 -31
-97 4 c-101 5 -170 26 -139 43 25 14 120 38 154 38 16 1 37 -5 46 -11z m-451
-44 c29 -47 20 -62 -18 -30 -36 30 -51 76 -21 68 10 -2 27 -20 39 -38z m49 5
c0 -5 4 -8 8 -5 16 9 97 -18 114 -38 25 -30 22 -36 -14 -36 -77 0 -106 11
-117 43 -14 37 -14 47 -1 47 6 0 10 -5 10 -11z m231 -112 c28 -63 23 -77 -10
-25 -16 25 -35 48 -43 51 -9 3 -18 15 -21 26 -10 39 52 -5 74 -52z m216 40
c27 -15 98 -86 91 -92 -9 -7 -179 23 -195 35 -36 27 -73 64 -73 72 0 14 144 1
177 -15z m-282 -39 c39 -18 29 -25 -19 -14 -25 6 -42 14 -40 18 7 11 29 10 59
-4z m181 -115 c9 -29 14 -56 12 -59 -13 -12 -79 26 -88 51 -11 30 -13 75 -4
100 11 27 60 -30 80 -92z m94 -74 c0 -5 -13 -3 -30 2 -23 8 -30 17 -30 37 l0
26 30 -29 c17 -16 30 -32 30 -36z m-122 -543 c5 -23 -5 -32 -45 -41 -32 -6
-33 -6 -33 30 0 36 0 36 37 33 27 -2 39 -8 41 -22z m-280 -112 c24 -16 29 -34
10 -34 -14 0 -48 30 -48 42 0 12 13 10 38 -8z"/>
<path d="M7615 3371 c-3 -6 -11 -9 -16 -6 -5 4 -9 2 -9 -4 0 -18 17 -21 30 -6
7 9 10 18 7 21 -3 3 -8 0 -12 -5z"/>
<path d="M8115 3340 c-3 -5 -1 -10 4 -10 6 0 11 5 11 10 0 6 -2 10 -4 10 -3 0
-8 -4 -11 -10z"/>
<path d="M7765 3379 c-4 -6 -5 -13 -2 -16 7 -7 27 6 27 18 0 12 -17 12 -25 -2z"/>
<path d="M7860 3319 c0 -5 5 -7 10 -4 6 3 10 8 10 11 0 2 -4 4 -10 4 -5 0 -10
-5 -10 -11z"/>
<path d="M8157 3283 c-11 -10 -8 -25 3 -18 6 3 10 1 10 -4 0 -6 -4 -11 -10
-11 -5 0 -10 -5 -10 -10 0 -6 11 -3 24 7 14 10 19 20 13 22 -7 2 -15 8 -18 13
-3 4 -8 5 -12 1z"/>
<path d="M7740 3170 c0 -5 5 -10 11 -10 5 0 7 5 4 10 -3 6 -8 10 -11 10 -2 0
-4 -4 -4 -10z"/>
<path d="M7227 2749 c-4 -16 -3 -18 9 -8 7 6 11 15 8 20 -8 13 -11 11 -17 -12z"/>
<path d="M7266 2643 c-9 -21 -8 -23 9 -17 8 4 15 1 15 -5 0 -6 -4 -11 -9 -11
-5 0 -11 -7 -14 -14 -8 -20 16 -10 29 12 8 13 6 21 -7 34 -15 14 -18 15 -23 1z"/>
<path d="M6581 2514 c24 -26 33 -26 24 -1 -4 8 -16 17 -27 20 -19 5 -19 5 3
-19z"/>
<path d="M7070 2480 c0 -5 5 -10 10 -10 6 0 10 5 10 10 0 6 -4 10 -10 10 -5 0
-10 -4 -10 -10z"/>
<path d="M7395 2379 c-4 -6 -5 -13 -2 -16 7 -7 27 6 27 18 0 12 -17 12 -25 -2z"/>
<path d="M7010 2336 c0 -8 5 -18 10 -21 6 -3 10 1 10 9 0 8 -4 18 -10 21 -5 3
-10 -1 -10 -9z"/>
<path d="M7855 2220 c-4 -6 -11 -8 -16 -5 -5 4 -9 2 -9 -4 0 -5 5 -13 10 -16
6 -3 10 -2 10 4 0 5 8 11 18 13 12 2 13 6 5 11 -6 4 -14 3 -18 -3z"/>
<path d="M7222 2261 c-18 -11 -11 -45 9 -49 16 -3 43 41 32 52 -9 8 -26 7 -41
-3z"/>
<path d="M6967 2115 c-4 -8 -3 -16 1 -19 4 -3 9 4 9 15 2 23 -3 25 -10 4z"/>
<path d="M6176 1968 c17 -19 17 -21 2 -15 -25 9 -22 0 5 -14 12 -6 19 -8 15
-4 -4 5 -3 14 3 22 9 10 8 13 -5 13 -9 0 -16 5 -16 10 0 6 -5 10 -12 10 -6 0
-3 -10 8 -22z"/>
<path d="M6285 1860 c-3 -5 -1 -10 4 -10 6 0 11 5 11 10 0 6 -2 10 -4 10 -3 0
-8 -4 -11 -10z"/>
<path d="M4096 1723 c-20 -32 -36 -62 -36 -67 0 -17 51 38 71 76 31 60 4 53
-35 -9z"/>
<path d="M4133 1564 c-14 -30 -22 -58 -18 -62 12 -12 73 69 71 95 -2 40 -26
25 -53 -33z"/>
<path d="M3760 1689 c-12 -23 -19 -43 -16 -46 6 -7 46 58 46 75 0 22 -9 13
-30 -29z"/>
<path d="M3821 1594 c-29 -37 -26 -55 4 -21 23 25 32 47 21 47 -3 0 -14 -12
-25 -26z"/>
<path d="M3628 1582 c-19 -33 -37 -123 -21 -107 32 32 60 88 55 110 -6 32 -14
31 -34 -3z"/>
<path d="M3323 1708 c-13 -17 -46 -118 -41 -124 6 -5 53 81 63 114 7 24 -6 30
-22 10z"/>
<path d="M3212 1693 c-15 -29 -44 -124 -40 -129 6 -6 48 71 58 106 10 33 -4
50 -18 23z"/>
<path d="M3376 1540 c-9 -22 -16 -55 -16 -73 l0 -32 29 48 c18 31 26 57 23 73
-6 35 -18 30 -36 -16z"/>
<path d="M4835 1668 c-20 -24 -41 -51 -47 -61 -8 -16 -4 -15 22 4 29 22 80 81
80 93 0 16 -22 1 -55 -36z"/>
<path d="M4740 1528 c-20 -33 -27 -88 -12 -88 24 0 52 43 52 80 0 48 -14 51
-40 8z"/>
<path d="M4890 1515 c-13 -14 -19 -25 -14 -25 14 0 54 30 54 41 0 16 -16 10
-40 -16z"/>
<path d="M5625 1439 c-32 -33 -35 -39 -15 -29 30 15 70 50 70 62 0 17 -17 7
-55 -33z"/>
<path d="M5297 1435 c-34 -33 -62 -74 -54 -82 4 -3 23 7 44 22 21 16 38 29 39
29 1 1 4 13 8 29 8 34 -1 34 -37 2z"/>
<path d="M5465 1392 c-30 -25 -68 -82 -55 -82 6 0 28 11 49 26 27 18 39 32 39
50 0 28 -6 29 -33 6z"/>
<path d="M1170 3635 c-14 -16 -3 -20 19 -6 8 5 9 11 3 15 -5 3 -15 -1 -22 -9z"/>
<path d="M1363 3623 c9 -2 23 -2 30 0 6 3 -1 5 -18 5 -16 0 -22 -2 -12 -5z"/>
<path d="M1308 3613 c6 -2 18 -2 25 0 6 3 1 5 -13 5 -14 0 -19 -2 -12 -5z"/>
<path d="M1421 3598 c-30 -10 -89 -23 -130 -27 l-76 -7 45 -13 c39 -11 55 -11
118 4 44 10 84 27 100 41 33 29 17 30 -57 2z"/>
<path d="M1129 3583 c-13 -16 -12 -17 4 -4 9 7 17 15 17 17 0 8 -8 3 -21 -13z"/>
<path d="M1175 3580 c3 -5 11 -10 16 -10 6 0 7 5 4 10 -3 6 -11 10 -16 10 -6
0 -7 -4 -4 -10z"/>
<path d="M267 3550 c3 -11 9 -20 15 -20 5 0 4 9 -2 20 -6 11 -12 20 -14 20 -2
0 -2 -9 1 -20z"/>
<path d="M230 3510 c-13 -8 -13 -10 2 -10 9 0 20 5 23 10 8 13 -5 13 -25 0z"/>
<path d="M275 3500 c-3 -5 3 -10 15 -10 12 0 18 5 15 10 -3 6 -10 10 -15 10
-5 0 -12 -4 -15 -10z"/>
<path d="M1110 3496 c0 -2 8 -10 18 -17 15 -13 16 -12 3 4 -13 16 -21 21 -21
13z"/>
<path d="M8041 3483 c-10 -19 -6 -33 10 -33 12 0 18 26 9 40 -6 10 -10 8 -19
-7z"/>
<path d="M7800 3475 c-20 -24 -6 -28 15 -5 10 11 13 20 8 20 -6 0 -16 -7 -23
-15z"/>
<path d="M1182 3473 c-13 -5 9 -25 56 -50 12 -7 30 -18 40 -24 12 -7 31 -9 48
-5 28 7 28 8 9 22 -11 9 -29 13 -41 11 -17 -3 -20 1 -18 20 2 18 -1 23 -13 19
-8 -3 -18 -6 -21 -6 -4 0 0 -5 8 -10 13 -8 13 -10 -2 -10 -25 0 -31 17 -11 29
10 6 13 11 8 11 -6 0 -17 -6 -23 -12 -9 -9 -15 -10 -20 -2 -4 6 -13 9 -20 7z"/>
<path d="M500 3452 c0 -12 19 -26 26 -19 2 2 -2 10 -11 17 -9 8 -15 8 -15 2z"/>
<path d="M1156 3446 c10 -8 21 -12 24 -10 5 6 -21 24 -34 24 -6 0 -1 -6 10
-14z"/>
<path d="M265 3408 c-21 -12 -35 -28 -35 -41 0 -5 7 -2 15 7 8 8 24 18 35 21
11 3 20 11 20 16 0 12 -10 11 -35 -3z"/>
<path d="M480 3410 c0 -6 7 -10 15 -10 8 0 15 2 15 4 0 2 -7 6 -15 10 -8 3
-15 1 -15 -4z"/>
<path d="M416 3401 c-3 -5 -14 -7 -24 -5 -9 3 -56 -9 -102 -27 -86 -33 -150
-84 -150 -118 0 -10 3 -12 8 -6 9 13 57 42 102 62 83 36 118 51 162 69 27 10
48 22 48 27 0 10 -38 9 -44 -2z"/>
<path d="M1218 3403 c7 -3 16 -2 19 1 4 3 -2 6 -13 5 -11 0 -14 -3 -6 -6z"/>
<path d="M630 3341 c0 -5 20 -12 45 -15 30 -5 48 -14 56 -27 6 -12 13 -18 16
-15 10 10 -19 37 -55 52 -39 16 -62 18 -62 5z"/>
<path d="M375 3318 c-68 -27 -136 -61 -132 -64 6 -6 82 18 102 32 11 8 25 14
33 14 7 0 22 9 34 20 26 24 26 24 -37 -2z"/>
<path d="M419 3291 c-34 -26 -170 -93 -177 -87 -3 3 -11 1 -18 -5 -7 -5 -30
-11 -53 -12 -31 -1 -38 -4 -29 -14 20 -24 178 -7 178 19 0 5 4 7 8 4 5 -3 31
16 58 42 26 26 52 46 55 45 4 -1 10 4 13 12 7 20 -7 19 -35 -4z"/>
<path d="M861 3284 c1 -21 16 -47 21 -38 4 5 0 18 -8 29 -8 10 -14 15 -13 9z"/>
<path d="M786 3249 c16 -20 31 -34 33 -32 3 2 -10 18 -29 36 l-34 32 30 -36z"/>
<path d="M740 3250 c0 -5 5 -10 10 -10 6 0 10 5 10 10 0 6 -4 10 -10 10 -5 0
-10 -4 -10 -10z"/>
<path d="M581 3204 c0 -11 3 -14 6 -6 3 7 2 16 -1 19 -3 4 -6 -2 -5 -13z"/>
<path d="M1566 3191 c-30 -32 -22 -47 20 -37 23 6 35 36 14 36 -5 0 -7 7 -4
15 9 22 1 18 -30 -14z"/>
<path d="M1810 3213 c8 -3 21 -10 28 -16 9 -7 11 -6 6 7 -3 9 -16 16 -28 15
-14 0 -16 -2 -6 -6z"/>
<path d="M360 3195 c-11 -13 -10 -14 4 -9 9 3 16 10 16 15 0 13 -6 11 -20 -6z"/>
<path d="M1120 3130 c-1 -41 -7 -136 -13 -211 l-12 -137 23 9 c39 15 108 58
127 79 18 19 17 20 -2 20 -11 0 -26 -7 -33 -15 -7 -8 -17 -12 -22 -9 -11 7
-48 -24 -48 -41 0 -7 -7 -16 -16 -19 -15 -6 -16 -1 -10 36 22 133 30 285 18
329 -9 30 -10 26 -12 -41z"/>
<path d="M1066 3134 c-10 -31 -15 -58 -12 -61 3 -3 1 -14 -4 -23 -5 -10 -10
-33 -11 -51 -2 -19 -7 -42 -12 -53 -6 -12 -5 -16 1 -12 5 3 13 -21 18 -57 7
-60 8 -59 16 68 4 72 12 154 18 184 5 30 9 56 7 58 -2 1 -11 -22 -21 -53z"/>
<path d="M612 3162 c-9 -6 -7 -13 10 -28 17 -14 19 -15 9 -2 -7 9 -10 22 -6
28 7 12 4 12 -13 2z"/>
<path d="M900 3168 c0 -17 32 -163 36 -167 4 -3 4 8 1 24 -21 111 -29 145 -33
145 -2 0 -4 -1 -4 -2z"/>
<path d="M248 3143 c6 -2 18 -2 25 0 6 3 1 5 -13 5 -14 0 -19 -2 -12 -5z"/>
<path d="M812 3130 c0 -14 2 -19 5 -12 2 6 2 18 0 25 -3 6 -5 1 -5 -13z"/>
<path d="M684 3125 c26 -20 42 -19 22 0 -8 8 -21 15 -28 15 -8 -1 -6 -6 6 -15z"/>
<path d="M693 3089 c27 -16 54 -28 60 -26 7 2 -4 11 -24 20 -20 8 -40 20 -43
26 -4 6 -15 11 -24 11 -9 0 5 -14 31 -31z"/>
<path d="M861 3105 c-1 -21 15 -52 23 -45 2 3 -2 19 -9 35 -10 23 -14 25 -14
10z"/>
<path d="M5561 3086 c-17 -19 -20 -26 -9 -32 7 -4 10 -3 5 1 -4 5 3 19 15 32
12 13 19 23 16 23 -2 0 -15 -11 -27 -24z"/>
<path d="M303 3028 c11 -127 35 -229 58 -243 5 -4 9 -24 9 -46 0 -27 4 -39 14
-39 17 0 48 -39 40 -52 -3 -4 3 -5 13 -1 17 6 17 5 0 -13 -13 -14 -31 -19 -67
-18 -28 1 -50 -3 -50 -7 0 -17 86 -9 124 11 38 19 39 19 77 0 21 -11 44 -20
51 -19 7 0 -1 7 -18 14 -42 19 -56 39 -59 83 -4 75 -32 190 -62 253 -33 71
-91 139 -118 139 -15 0 -17 -8 -12 -62z"/>
<path d="M7579 3079 c-56 -21 -58 -99 -3 -99 32 0 81 33 89 61 13 41 -28 59
-86 38z m-4 -49 c-10 -11 -20 -18 -23 -16 -5 6 21 35 32 36 5 0 1 -9 -9 -20z"/>
<path d="M1658 3073 c6 -2 18 -2 25 0 6 3 1 5 -13 5 -14 0 -19 -2 -12 -5z"/>
<path d="M1543 3050 c-46 -20 -46 -20 -37 -44 5 -13 9 -14 21 -5 11 10 11 14
1 21 -8 5 -1 6 16 2 25 -6 28 -4 23 10 -4 10 -1 16 8 16 7 0 17 5 20 10 9 15
-5 12 -52 -10z"/>
<path d="M7067 3047 c3 -15 9 -27 14 -27 13 0 11 13 -5 35 -13 18 -14 18 -9
-8z"/>
<path d="M1830 3044 c0 -8 5 -12 11 -9 14 9 79 -36 80 -55 0 -11 2 -12 6 -2 7
18 -32 58 -68 71 -24 8 -29 7 -29 -5z"/>
<path d="M5570 3036 c0 -2 7 -9 15 -16 13 -11 14 -10 9 4 -5 14 -24 23 -24 12z"/>
<path d="M1616 3023 c-4 -5 -11 -8 -14 -8 -15 -1 -72 -30 -72 -37 0 -5 -7 -8
-15 -8 -20 0 -170 -154 -185 -191 -10 -22 -15 -27 -21 -17 -7 10 -9 10 -10 1
-3 -23 -4 -28 -13 -41 -17 -28 2 -20 25 10 21 27 91 97 200 200 15 14 48 40
74 58 25 17 45 33 45 35 0 7 -6 6 -14 -2z"/>
<path d="M8330 3013 c0 -6 10 -20 23 -30 13 -10 26 -27 30 -37 6 -15 10 -17
20 -7 9 10 8 15 -5 25 -10 7 -14 17 -10 21 4 5 1 5 -6 1 -8 -5 -20 2 -32 16
-11 13 -19 18 -20 11z"/>
<path d="M941 2974 c0 -11 3 -14 6 -6 3 7 2 16 -1 19 -3 4 -6 -2 -5 -13z"/>
<path d="M1649 2963 c14 -29 28 -36 37 -21 4 7 4 10 -1 6 -4 -4 -16 3 -27 15
l-19 22 10 -22z"/>
<path d="M4515 2973 c-11 -2 -36 -10 -55 -17 -21 -8 -59 -12 -95 -9 l-60 4 53
-31 c29 -18 64 -48 77 -68 22 -32 25 -47 25 -129 0 -51 4 -93 8 -93 5 0 16 6
26 13 17 12 17 17 2 74 -9 33 -16 78 -16 99 1 50 30 115 65 142 29 23 21 27
-30 15z"/>
<path d="M5636 2968 c2 -7 16 -21 29 -31 15 -11 23 -13 19 -5 -2 7 -16 21 -29
31 -15 11 -23 13 -19 5z"/>
<path d="M7075 2960 c-3 -5 1 -10 10 -10 9 0 13 5 10 10 -3 6 -8 10 -10 10 -2
0 -7 -4 -10 -10z"/>
<path d="M1600 2927 c-37 -45 -262 -267 -272 -267 -5 0 -3 -6 3 -13 11 -11 16
-10 29 2 54 52 154 136 160 134 4 -1 7 5 6 14 0 10 11 23 27 31 15 7 27 18 27
25 0 7 -4 6 -10 -3 -6 -9 -10 -10 -10 -3 0 6 9 18 21 26 11 8 22 23 23 32 1
10 10 23 20 30 9 7 13 15 9 18 -5 3 -20 -9 -33 -26z"/>
<path d="M1887 2953 c7 -2 9 -11 6 -20 -5 -13 -3 -14 15 -4 30 16 28 26 -6 27
-15 1 -22 -1 -15 -3z"/>
<path d="M954 2932 c5 -15 -2 -29 -26 -53 -18 -18 -24 -26 -14 -18 18 13 19
12 13 -3 -7 -20 9 -25 16 -5 3 7 6 5 6 -5 1 -10 -3 -18 -9 -18 -5 0 -9 -3 -9
-7 5 -32 -3 -52 -23 -56 -43 -7 30 -28 76 -22 l41 6 50 -87 c28 -48 53 -95 56
-104 4 -9 36 -41 70 -70 l64 -55 -67 73 c-64 68 -128 172 -128 207 0 8 -4 15
-10 15 -5 0 -10 11 -10 23 0 13 -3 27 -7 31 -4 4 -15 27 -24 51 -14 37 -15 45
-3 45 8 0 14 7 14 15 0 8 -9 15 -20 15 -11 0 -29 9 -41 21 -20 20 -21 20 -15
1z"/>
<path d="M1414 2919 c-20 -22 -23 -28 -8 -19 18 11 50 50 41 50 -2 0 -16 -14
-33 -31z"/>
<path d="M1700 2936 c0 -2 7 -6 15 -10 8 -3 15 -1 15 4 0 6 -7 10 -15 10 -8 0
-15 -2 -15 -4z"/>
<path d="M1144 2919 c-3 -5 -2 -13 1 -19 3 -5 2 -10 -3 -10 -5 0 -12 -9 -15
-20 -3 -11 -2 -20 2 -20 3 0 12 9 19 20 7 11 21 20 32 20 11 0 20 3 20 8 0 4
20 6 45 5 50 -2 55 1 24 18 -14 7 -24 8 -28 1 -4 -6 -22 -7 -49 -2 -23 4 -45
3 -48 -1z"/>
<path d="M4045 2900 c-31 -16 -46 -18 -74 -10 -41 11 -62 2 -30 -14 52 -26 63
-57 63 -184 1 -96 -2 -123 -16 -145 -24 -35 -23 -39 7 -25 19 8 38 8 80 -1 30
-7 59 -10 63 -7 12 7 92 -24 92 -36 0 -21 61 2 95 35 17 17 16 18 -9 11 -25
-6 -26 -4 -26 33 0 22 7 62 15 89 19 61 11 106 -25 144 -35 38 -53 38 -80 0
-35 -49 -40 -84 -25 -158 8 -37 15 -77 15 -90 0 -26 -9 -26 -106 -1 -37 10
-42 15 -48 47 -3 21 -6 79 -6 131 0 83 3 99 25 138 14 23 30 43 35 43 6 0 10
5 10 10 0 14 -11 12 -55 -10z"/>
<path d="M1351 2873 c-1 -6 -4 -20 -7 -30 -5 -17 -5 -17 6 0 6 10 9 23 6 30
-3 9 -5 9 -5 0z"/>
<path d="M1490 2869 c0 -5 5 -7 10 -4 6 3 10 8 10 11 0 2 -4 4 -10 4 -5 0 -10
-5 -10 -11z"/>
<path d="M7065 2848 c3 -13 9 -43 14 -68 9 -45 9 -45 10 -9 1 48 -9 99 -20 99
-5 0 -7 -10 -4 -22z"/>
<path d="M640 2858 c0 -3 25 -44 55 -90 30 -45 55 -90 56 -98 0 -10 3 -8 9 5
12 28 12 55 -1 53 -6 -2 -22 21 -37 49 -15 29 -36 56 -47 59 -11 4 -23 12 -27
18 -4 6 -8 8 -8 4z"/>
<path d="M1458 2841 c-8 -10 -24 -24 -34 -32 -26 -20 -79 -79 -71 -79 12 0
132 118 126 124 -3 3 -12 -3 -21 -13z"/>
<path d="M570 2832 c0 -12 6 -38 14 -57 8 -18 11 -37 8 -41 -4 -4 -1 -4 6 0 9
5 12 3 11 -5 -4 -22 12 -63 20 -51 4 7 19 -2 39 -23 17 -19 26 -35 20 -35 -9
0 -9 -3 -1 -11 6 -6 19 -9 28 -7 14 3 13 8 -12 40 -62 79 -74 99 -112 173 -16
32 -20 36 -21 17z"/>
<path d="M6965 2830 c-4 -12 -5 -24 -2 -27 3 -2 8 5 12 17 4 12 5 24 2 27 -3
2 -8 -5 -12 -17z"/>
<path d="M175 2790 c-3 -6 1 -7 9 -4 18 7 21 14 7 14 -6 0 -13 -4 -16 -10z"/>
<path d="M640 2770 c0 -5 4 -10 8 -10 5 0 18 -17 30 -38 21 -38 62 -90 62 -79
0 8 -90 137 -96 137 -2 0 -4 -4 -4 -10z"/>
<path d="M150 2748 c0 -7 11 -18 25 -25 32 -14 32 -3 0 20 -18 13 -25 14 -25
5z"/>
<path d="M255 2750 c3 -5 13 -10 21 -10 8 0 14 5 14 10 0 6 -9 10 -21 10 -11
0 -17 -4 -14 -10z"/>
<path d="M326 2752 c-2 -4 4 -8 14 -8 10 0 16 4 14 8 -3 4 -9 8 -14 8 -5 0
-11 -4 -14 -8z"/>
<path d="M1502 2742 c-7 -2 -12 -8 -12 -14 0 -5 6 -8 13 -5 6 2 25 -2 40 -10
16 -8 30 -13 32 -11 6 7 -62 44 -73 40z"/>
<path d="M225 2729 c-4 -6 -5 -12 -2 -15 2 -3 7 2 10 11 7 17 1 20 -8 4z"/>
<path d="M5695 2720 c-3 -5 -1 -10 4 -10 6 0 11 5 11 10 0 6 -2 10 -4 10 -3 0
-8 -4 -11 -10z"/>
<path d="M1330 2709 c0 -5 5 -7 10 -4 6 3 10 8 10 11 0 2 -4 4 -10 4 -5 0 -10
-5 -10 -11z"/>
<path d="M176 2688 c10 -14 21 -24 23 -22 3 3 -6 15 -18 27 l-24 22 19 -27z"/>
<path d="M5665 2700 c3 -5 8 -10 11 -10 2 0 4 5 4 10 0 6 -5 10 -11 10 -5 0
-7 -4 -4 -10z"/>
<path d="M1443 2686 c-4 -7 -15 -15 -23 -18 -9 -3 -2 -7 15 -9 27 -4 31 -2 33
18 2 25 -12 31 -25 9z"/>
<path d="M1603 2672 c0 -11 5 -18 10 -15 5 3 13 -1 18 -8 5 -8 9 -9 9 -3 0 6
-9 19 -19 29 -19 16 -20 16 -18 -3z"/>
<path d="M772 2660 c0 -14 2 -19 5 -12 2 6 2 18 0 25 -3 6 -5 1 -5 -13z"/>
<path d="M5757 2659 c7 -7 15 -10 18 -7 3 3 -2 9 -12 12 -14 6 -15 5 -6 -5z"/>
<path d="M210 2656 c0 -2 7 -9 15 -16 9 -7 15 -8 15 -2 0 5 -7 12 -15 16 -8 3
-15 4 -15 2z"/>
<path d="M270 2631 l-25 -7 25 -7 c34 -9 42 -9 36 2 -4 5 0 12 6 14 20 8 -13
6 -42 -2z"/>
<path d="M1295 2553 c-3 -49 -10 -96 -16 -106 -8 -14 -1 -28 35 -70 25 -29 56
-65 69 -81 l24 -29 0 32 c0 19 -3 27 -8 19 -5 -8 -22 3 -54 38 l-46 49 6 118
c7 136 0 159 -10 30z"/>
<path d="M5360 2625 c6 -8 9 -19 6 -24 -10 -15 5 -62 16 -55 6 4 14 1 18 -7 7
-10 16 -7 44 12 20 13 36 26 36 29 0 7 -107 60 -121 60 -8 0 -8 -5 1 -15z"/>
<path d="M1640 2621 c0 -6 4 -13 10 -16 6 -3 7 1 4 9 -7 18 -14 21 -14 7z"/>
<path d="M4788 2619 c-28 -16 -63 -85 -118 -233 -49 -134 -57 -175 -34 -183 6
-2 30 28 55 67 24 38 47 70 51 70 10 0 10 4 -7 -54 -14 -44 -13 -52 1 -73 19
-29 33 -26 60 14 l20 31 10 -32 c11 -39 38 -45 70 -15 l24 23 20 -22 c28 -29
36 -28 62 12 l22 34 18 -29 c21 -34 48 -37 73 -9 l19 21 13 -26 c17 -31 39
-32 70 -3 l23 22 20 -22 c27 -28 36 -28 57 4 16 26 17 26 25 5 4 -12 11 -21
16 -21 5 0 30 34 56 75 26 41 51 75 56 75 4 0 -1 -23 -11 -51 -21 -54 -22 -90
-3 -96 5 -2 32 31 58 72 27 42 50 74 53 71 3 -2 -3 -28 -12 -56 -16 -47 -16
-52 0 -76 20 -30 33 -27 61 14 l21 31 22 -30 c26 -35 34 -36 69 -8 27 20 27
20 36 0 13 -30 36 -34 57 -9 15 19 18 20 19 6 0 -39 22 -24 70 48 29 41 54 74
56 71 2 -2 -2 -21 -9 -43 -17 -46 -14 -71 8 -93 15 -15 18 -14 38 9 12 14 29
37 38 50 l16 25 -4 -30 c-5 -32 26 -73 46 -61 17 11 102 158 95 165 -4 3 -9 1
-11 -6 -2 -7 -23 -40 -46 -75 -34 -52 -42 -59 -45 -41 -2 12 11 56 28 99 23
58 28 80 19 88 -8 8 -13 8 -15 0 -8 -20 -123 -192 -134 -199 -17 -10 -11 22
15 87 47 117 24 144 -46 53 -24 -30 -45 -52 -47 -50 -2 2 1 20 8 39 11 34 8
56 -8 56 -4 0 -24 -35 -45 -77 -20 -43 -46 -89 -57 -103 l-20 -25 0 26 c0 14
11 59 25 99 25 75 21 112 -7 71 l-15 -22 -17 26 c-9 14 -21 25 -27 25 -15 0
-77 -69 -85 -94 -10 -31 -78 -120 -82 -107 -2 6 10 50 28 98 47 132 20 135
-78 8 -23 -29 -23 -29 -18 -5 19 75 19 80 1 86 -18 7 -51 -25 -81 -79 -20 -38
-29 -28 -14 16 9 24 10 39 2 53 -9 17 -14 11 -40 -47 -17 -37 -44 -86 -61
-109 -30 -41 -31 -42 -31 -16 0 14 11 54 25 88 14 34 25 68 25 76 0 27 -24 5
-54 -51 -37 -67 -101 -145 -111 -135 -4 4 7 43 25 87 30 75 36 119 16 124 -4
1 -19 -26 -33 -59 -23 -59 -85 -144 -104 -144 -13 0 -11 70 3 111 6 19 34 59
61 89 83 91 123 210 71 210 -41 0 -129 -144 -165 -269 -10 -35 -31 -83 -46
-105 -24 -36 -28 -38 -31 -19 -2 12 8 50 22 86 14 35 26 69 26 76 0 26 -25 3
-54 -52 -38 -68 -101 -145 -112 -134 -4 4 7 42 24 85 18 42 32 87 32 99 0 44
-20 32 -48 -29 -34 -74 -94 -158 -100 -140 -2 6 11 50 29 97 24 65 29 89 21
97 -14 14 -61 -27 -95 -81 -11 -19 -22 -30 -25 -23 -5 15 25 71 65 117 88 103
109 230 31 184z m37 -41 c-9 -33 -71 -132 -84 -136 -10 -3 4 34 49 131 16 34
44 38 35 5z m400 0 c-10 -35 -67 -126 -93 -151 l-24 -22 27 60 c31 72 71 135
86 135 6 0 8 -9 4 -22z m541 -212 c-2 -35 -59 -136 -77 -136 -13 0 -11 31 5
78 31 88 74 122 72 58z"/>
<path d="M472 2605 c9 -10 -19 -38 -31 -31 -11 7 -71 -47 -71 -63 0 -15 15
-14 29 3 12 15 94 56 121 61 8 2 17 4 20 5 8 1 -23 17 -50 25 -14 4 -22 4 -18
0z"/>
<path d="M3278 2600 c-104 -31 -173 -133 -132 -195 9 -14 47 -44 85 -66 88
-52 95 -61 79 -98 -6 -16 -24 -40 -38 -54 -40 -37 -139 -97 -196 -119 l-51
-19 53 5 c108 10 282 124 282 184 0 32 -39 71 -104 103 -77 39 -96 56 -96 86
0 68 101 163 172 163 25 0 29 3 18 10 -18 11 -35 11 -72 0z"/>
<path d="M4604 2592 c-113 -40 -247 -165 -310 -290 -39 -78 -41 -177 -5 -216
46 -49 123 -44 213 13 49 31 88 91 88 133 -1 20 -3 19 -15 -9 -17 -41 -88
-108 -141 -133 -44 -22 -95 -26 -125 -10 -29 16 -26 100 6 168 68 147 248 329
344 348 l33 7 -15 -29 c-15 -30 -129 -143 -182 -182 -16 -12 -25 -21 -20 -22
18 0 144 101 180 144 41 51 50 90 20 93 -11 2 -43 -5 -71 -15z"/>
<path d="M5878 2603 c7 -3 16 -2 19 1 4 3 -2 6 -13 5 -11 0 -14 -3 -6 -6z"/>
<path d="M1516 2585 c3 -8 10 -12 15 -9 5 3 9 1 9 -5 0 -5 -4 -11 -10 -13 -6
-2 -4 -24 5 -58 9 -30 18 -71 21 -90 3 -19 10 -42 15 -51 4 -9 6 -18 4 -21 -2
-2 1 -35 8 -74 13 -65 14 -67 26 -45 12 22 11 139 -3 198 -7 31 -35 83 -45 83
-14 0 -23 32 -12 43 5 5 11 1 15 -11 6 -19 7 -19 43 -1 21 11 42 27 47 36 9
16 8 17 -8 4 -15 -13 -19 -13 -28 0 -8 11 -9 11 -4 -3 7 -22 -10 -24 -18 -2
-3 8 -10 13 -16 9 -5 -3 -23 1 -39 10 -27 13 -30 13 -25 0z"/>
<path d="M2305 2578 c-171 -15 -245 -41 -265 -93 -13 -34 7 -45 79 -45 44 0
61 3 52 9 -8 5 -37 7 -63 4 -46 -6 -48 -5 -48 19 0 54 58 74 237 82 73 3 121
10 140 20 l28 15 -30 -1 c-16 0 -75 -5 -130 -10z"/>
<path d="M3378 2579 c18 -19 15 -59 -9 -103 -16 -31 -18 -41 -8 -47 34 -21 67
64 45 116 -8 18 -20 36 -27 40 -11 6 -12 5 -1 -6z"/>
<path d="M5917 2579 c7 -7 15 -10 18 -7 3 3 -2 9 -12 12 -14 6 -15 5 -6 -5z"/>
<path d="M2687 2558 c-14 -14 -42 -58 -62 -98 l-36 -72 -23 21 -23 21 -27 -21
c-14 -11 -36 -39 -47 -60 -23 -46 -42 -43 -34 5 5 23 1 38 -13 56 -20 24 -20
25 -56 7 -28 -13 -43 -30 -61 -70 -30 -64 -32 -106 -5 -135 24 -26 22 -25 54
-11 13 6 35 31 48 55 13 24 26 44 29 44 3 0 10 -16 15 -36 5 -20 19 -43 31
-51 19 -13 24 -12 42 6 26 26 26 26 51 1 27 -27 36 -25 62 15 28 42 34 43 41
6 7 -34 38 -55 67 -46 11 4 32 26 46 51 14 24 32 44 39 44 7 0 18 6 24 14 9
11 8 14 -6 12 -15 -1 -18 8 -19 48 -2 54 -16 69 -54 60 -36 -8 -46 -19 -90
-94 -55 -94 -76 -118 -90 -103 -18 17 17 120 56 163 39 44 84 109 84 123 0 6
-13 -9 -28 -34 -16 -24 -36 -50 -46 -58 -15 -13 -16 -12 -7 12 18 46 50 105
62 113 6 3 15 0 20 -7 5 -8 9 -9 9 -3 0 5 -6 19 -14 29 -13 18 -14 18 -39 -7z
m-125 -185 c4 -31 -1 -48 -29 -90 -31 -46 -63 -69 -63 -45 0 21 32 110 50 140
26 42 37 41 42 -5z m-158 -30 c-1 -96 -62 -172 -93 -115 -19 35 47 172 83 172
7 0 11 -23 10 -57z m390 -1 c0 -82 -46 -151 -84 -127 -26 16 0 113 44 163 31
36 41 27 40 -36z"/>
<path d="M730 2560 c8 -5 22 -9 30 -9 10 0 8 3 -5 9 -27 12 -43 12 -25 0z"/>
<path d="M793 2543 c9 -2 25 -2 35 0 9 3 1 5 -18 5 -19 0 -27 -2 -17 -5z"/>
<path d="M1045 2540 c33 -4 64 -3 70 2 5 4 -22 7 -60 7 l-70 -2 60 -7z"/>
<path d="M452 2519 c-18 -12 -31 -24 -28 -26 7 -7 66 26 66 37 0 13 0 13 -38
-11z"/>
<path d="M872 2529 c18 -12 61 -11 53 0 -3 5 -19 9 -36 9 -20 -1 -26 -4 -17
-9z"/>
<path d="M948 2533 c7 -3 16 -2 19 1 4 3 -2 6 -13 5 -11 0 -14 -3 -6 -6z"/>
<path d="M490 2497 c-40 -27 -96 -48 -104 -40 -3 4 -6 1 -6 -6 0 -34 67 -19
116 26 32 30 43 23 17 -11 -20 -28 -85 -58 -107 -50 -9 3 -19 -3 -26 -17 -15
-28 -19 -124 -5 -138 7 -7 9 10 7 49 -3 52 -2 59 12 54 9 -3 16 -1 16 5 0 6 9
11 21 11 19 0 19 -3 -10 -39 -37 -46 -38 -52 -9 -70 22 -14 22 -14 3 -23 -14
-6 -10 -7 15 -3 24 4 50 21 83 53 51 49 107 136 106 162 0 10 -2 11 -6 3 -2
-7 -10 -13 -16 -13 -7 1 2 12 18 25 l30 25 -57 0 c-31 0 -58 5 -60 10 -2 6
-19 0 -38 -13z m93 -66 c2 -10 1 -24 -3 -30 -4 -7 -7 1 -8 18 -1 35 3 40 11
12z m-53 -66 c0 -9 -8 -19 -17 -22 -19 -7 -33 -22 -33 -36 0 -5 5 -5 10 -2 6
3 10 3 10 -2 0 -11 -61 -45 -68 -38 -3 3 2 22 12 41 9 20 19 34 23 31 3 -3 17
5 31 19 31 28 32 29 32 9z"/>
<path d="M1066 2511 c-3 -4 -31 -11 -62 -15 -59 -7 -154 -42 -154 -57 0 -5 -7
-9 -17 -9 -14 0 -15 2 -1 18 31 36 31 42 -4 36 -91 -16 -195 -78 -228 -136
-24 -43 -25 -118 -1 -126 8 -3 11 0 7 7 -4 6 -3 11 2 11 6 0 12 -7 15 -15 8
-19 53 -4 90 31 30 27 30 27 27 -30 l-2 -39 26 16 c30 20 34 16 10 -8 -28 -28
-8 -28 54 0 80 36 145 103 177 185 29 74 33 105 10 74 -13 -18 -14 -18 -15 -1
0 11 13 23 34 32 30 13 57 35 42 35 -3 0 -7 -4 -10 -9z m-96 -65 c0 -2 -8 -10
-17 -17 -16 -13 -17 -12 -4 4 13 16 21 21 21 13z m1 -49 c-10 -9 -11 -8 -5 6
3 10 9 15 12 12 3 -3 0 -11 -7 -18z m-51 -1 c0 -3 -4 -8 -10 -11 -5 -3 -10 -1
-10 4 0 6 5 11 10 11 6 0 10 -2 10 -4z m-295 -113 c-5 -10 -8 -21 -7 -25 1 -4
-5 -5 -13 -2 -13 5 -13 8 0 21 8 8 15 19 15 25 0 6 3 9 6 5 4 -3 3 -14 -1 -24z
m132 5 c-3 -8 -6 -5 -6 6 -1 11 2 17 5 13 3 -3 4 -12 1 -19z m-83 -43 c-10 -8
-26 -14 -34 -14 -9 0 -4 6 10 14 33 19 49 19 24 0z"/>
<path d="M1441 2477 c-20 -42 -29 -75 -13 -49 5 7 7 -26 6 -72 -2 -72 1 -91
21 -127 12 -24 33 -50 46 -59 l23 -15 -17 26 c-24 36 -37 118 -39 237 -1 56
-2 102 -4 102 -1 0 -12 -19 -23 -43z"/>
<path d="M2211 2456 c-47 -98 -132 -316 -139 -354 -7 -45 12 -36 34 16 101
238 159 402 141 402 -3 0 -19 -29 -36 -64z"/>
<path d="M6151 2491 c-8 -14 -7 -22 3 -30 10 -8 15 -5 24 13 16 37 -9 52 -27
17z"/>
<path d="M7690 2484 c0 -8 5 -12 10 -9 6 3 10 10 10 16 0 5 -4 9 -10 9 -5 0
-10 -7 -10 -16z"/>
<path d="M1606 2457 c3 -10 9 -15 12 -12 3 3 0 11 -7 18 -10 9 -11 8 -5 -6z"/>
<path d="M2910 2417 c-36 -18 -46 -60 -25 -104 22 -46 11 -89 -23 -86 -31 4
-27 -12 7 -27 24 -10 33 -9 55 5 26 17 106 128 106 147 0 6 -18 -17 -41 -51
-22 -34 -44 -59 -48 -56 -13 8 -33 90 -29 121 4 42 38 46 38 5 0 -36 16 -49
25 -21 15 48 -23 88 -65 67z"/>
<path d="M3473 2420 c-60 -24 -106 -168 -68 -210 10 -11 27 -20 38 -20 22 0
77 55 77 76 0 13 48 39 56 31 2 -2 -2 -17 -8 -34 -11 -30 -6 -63 10 -63 5 0
30 34 56 75 26 41 51 75 56 75 4 0 -1 -23 -11 -51 -21 -54 -22 -90 -3 -96 6
-2 30 28 55 67 24 38 47 70 51 70 10 0 10 4 -7 -54 -13 -44 -13 -52 0 -73 9
-13 20 -23 25 -23 8 0 35 31 55 65 9 16 11 15 12 -6 1 -12 11 -31 22 -42 29
-29 66 -16 99 37 23 37 42 52 88 72 15 7 24 -44 13 -74 -7 -17 -14 -22 -29
-17 -27 8 -26 -11 1 -25 32 -18 64 -4 102 43 34 42 71 106 65 112 -2 2 -21
-23 -43 -56 -22 -32 -42 -55 -46 -51 -10 12 -29 88 -29 115 0 21 16 37 37 37
2 0 3 -15 1 -32 -2 -24 1 -33 12 -33 31 0 23 79 -9 90 -10 3 -30 1 -45 -4 -20
-8 -27 -19 -32 -50 -6 -40 -28 -70 -41 -57 -4 3 -6 27 -4 51 2 39 -1 46 -23
56 -39 18 -77 -3 -106 -58 -31 -59 -78 -131 -91 -138 -16 -10 -10 18 21 105
22 57 28 86 21 93 -13 13 -61 -30 -93 -81 -26 -42 -33 -35 -17 17 10 33 10 44
0 54 -10 9 -19 5 -44 -23 -18 -19 -40 -46 -50 -60 l-18 -25 7 25 c19 74 -3
107 -29 42 -29 -72 -69 -82 -60 -14 4 28 0 43 -12 55 -18 19 -29 20 -62 7z
m40 -81 c-2 -48 -8 -69 -28 -95 -68 -88 -89 8 -25 109 42 66 56 62 53 -14z
m480 0 c-2 -48 -8 -69 -28 -95 -68 -88 -89 8 -25 109 42 66 56 62 53 -14z"/>
<path d="M1514 2340 c7 -106 18 -162 30 -149 4 5 -22 189 -29 204 -3 6 -3 -19
-1 -55z"/>
<path d="M1402 2360 c0 -14 2 -19 5 -12 2 6 2 18 0 25 -3 6 -5 1 -5 -13z"/>
<path d="M1909 2319 c77 -36 113 -36 55 1 -22 15 -56 27 -79 28 l-40 2 64 -31z"/>
<path d="M1801 2310 c0 -22 28 -87 29 -67 0 10 50 -23 50 -33 0 -4 -8 -11 -17
-14 -33 -13 -63 -31 -63 -38 0 -4 12 -3 26 2 14 6 37 10 52 10 25 -1 25 -2 10
-14 -17 -12 -16 -14 5 -25 18 -9 14 -10 -28 -5 -27 3 -57 10 -66 15 -16 8 -29
3 -29 -12 0 -29 155 -72 171 -47 13 19 11 28 -6 28 -8 0 -15 5 -15 10 0 5 6 9
13 7 6 -1 11 3 10 10 -2 7 6 17 17 23 27 15 16 35 -33 59 -46 22 -97 65 -115
96 -11 19 -11 19 -11 -5z"/>
<path d="M7750 2310 c0 -5 5 -10 11 -10 5 0 7 5 4 10 -3 6 -8 10 -11 10 -2 0
-4 -4 -4 -10z"/>
<path d="M7785 2280 c3 -5 11 -10 16 -10 6 0 7 5 4 10 -3 6 -11 10 -16 10 -6
0 -7 -4 -4 -10z"/>
<path d="M1104 2258 c-3 -4 -15 -8 -28 -8 -12 0 -30 -6 -40 -13 -15 -11 -1
-13 86 -15 90 -2 147 -9 236 -28 14 -3 21 -1 18 5 -16 25 -260 78 -272 59z"/>
<path d="M6369 2227 c-9 -20 -9 -31 -2 -38 16 -16 37 26 24 48 -8 16 -11 14
-22 -10z"/>
<path d="M6195 2220 c-10 -32 6 -46 21 -19 17 31 17 39 0 39 -8 0 -17 -9 -21
-20z"/>
<path d="M6275 2220 c-10 -32 6 -46 21 -19 17 31 17 39 0 39 -8 0 -17 -9 -21
-20z"/>
<path d="M1420 2224 c0 -6 7 -19 16 -30 14 -18 14 -18 3 6 -14 31 -19 36 -19
24z"/>
<path d="M3101 2159 c-58 -39 -91 -72 -91 -93 0 -5 9 3 20 17 12 15 48 45 80
68 55 38 67 49 56 49 -2 0 -31 -18 -65 -41z"/>
<path d="M7490 2190 c0 -13 11 -13 30 0 12 8 11 10 -7 10 -13 0 -23 -4 -23
-10z"/>
<path d="M1000 2184 c1 -23 44 -54 85 -61 66 -11 214 -9 236 2 20 11 12 13
-71 14 -53 1 -111 6 -130 11 -19 6 -46 10 -59 10 -13 0 -33 7 -43 17 -10 9
-18 12 -18 7z"/>
<path d="M1145 2179 c22 -4 58 -8 80 -7 38 0 39 1 10 8 -16 4 -52 8 -80 8
l-50 0 40 -9z"/>
<path d="M1460 2166 c0 -2 12 -12 28 -21 l27 -18 -19 21 c-17 20 -36 29 -36
18z"/>
<path d="M1069 2105 c-3 -2 -23 -7 -45 -11 -49 -7 -55 -13 -64 -66 -7 -37 -5
-46 14 -68 13 -14 30 -38 37 -54 11 -21 31 -35 87 -56 61 -24 72 -26 66 -12
-5 9 -10 51 -11 92 -2 41 -9 86 -16 100 -14 30 -62 82 -68 75z"/>
<path d="M2251 2067 c-9 -12 -6 -16 20 -21 17 -3 46 -6 63 -5 l31 1 -33 14
c-18 8 -38 12 -44 8 -5 -4 -14 -1 -18 5 -5 9 -10 8 -19 -2z"/>
<path d="M636 2041 c-4 -5 2 -7 13 -4 21 5 101 -32 101 -47 0 -6 -9 -10 -20
-10 -11 0 -20 -5 -20 -11 0 -14 52 -2 62 14 12 19 10 22 -37 45 -47 23 -90 28
-99 13z"/>
<path d="M2423 2043 c15 -2 37 -2 50 0 12 2 0 4 -28 4 -27 0 -38 -2 -22 -4z"/>
<path d="M6404 2032 c4 -7 16 -12 28 -12 18 0 19 -2 7 -17 -12 -15 -12 -16 4
-10 10 4 23 7 28 7 5 0 9 7 9 15 0 9 -9 15 -24 15 -13 0 -32 3 -42 7 -12 4
-15 3 -10 -5z"/>
<path d="M603 2014 c-3 -9 2 -31 10 -50 18 -36 47 -53 127 -73 25 -6 50 -13
55 -14 6 -2 37 -13 69 -25 52 -20 100 -23 83 -5 -11 10 -111 42 -134 43 -13 0
-24 8 -28 20 -6 17 -12 20 -41 14 -20 -4 -34 -2 -34 4 0 5 -7 13 -16 16 -8 3
-12 2 -9 -4 14 -22 -16 -8 -31 15 -14 22 -14 32 -2 62 2 3 -7 8 -20 9 -14 3
-25 -2 -29 -12z"/>
<path d="M7950 2001 c0 -5 6 -14 14 -20 12 -10 13 -8 9 8 -5 21 -23 30 -23 12z"/>
<path d="M894 1987 c11 -7 27 -19 37 -29 9 -9 20 -14 22 -11 3 2 13 -7 23 -21
9 -15 19 -24 22 -22 7 7 -46 69 -72 83 -29 17 -58 16 -32 0z"/>
<path d="M785 1980 c-3 -5 -1 -10 4 -10 6 0 11 5 11 10 0 6 -2 10 -4 10 -3 0
-8 -4 -11 -10z"/>
<path d="M783 1963 c-13 -2 -23 -9 -23 -14 0 -6 9 -7 21 -4 13 4 27 1 38 -9
17 -15 135 -76 147 -76 9 0 -48 44 -102 78 -28 18 -53 31 -55 31 -2 -1 -14 -4
-26 -6z"/>
<path d="M880 1961 c0 -6 14 -17 30 -26 17 -9 30 -13 30 -11 0 3 -13 14 -30
26 -16 12 -30 17 -30 11z"/>
<path d="M728 1933 c7 -3 16 -2 19 1 4 3 -2 6 -13 5 -11 0 -14 -3 -6 -6z"/>
<path d="M1428 1813 c7 -3 16 -2 19 1 4 3 -2 6 -13 5 -11 0 -14 -3 -6 -6z"/>
<path d="M1290 1800 c0 -5 5 -10 10 -10 6 0 10 5 10 10 0 6 -4 10 -10 10 -5 0
-10 -4 -10 -10z"/>
<path d="M906 1755 c5 -11 10 -13 19 -5 9 8 14 7 17 -2 3 -8 7 -6 11 5 5 14 1
17 -23 17 -22 0 -28 -4 -24 -15z"/>
<path d="M845 1735 c-25 -12 -26 -14 -5 -9 14 4 29 10 35 15 12 12 5 11 -30
-6z"/>
<path d="M1171 1741 c-30 -8 -40 -31 -13 -31 18 0 50 26 41 34 -2 1 -15 0 -28
-3z"/>
<path d="M4548 1723 c-24 -28 -71 -113 -62 -113 4 0 27 11 50 25 46 27 64 51
64 84 0 26 -31 28 -52 4z"/>
<path d="M738 1693 c7 -3 16 -2 19 1 4 3 -2 6 -13 5 -11 0 -14 -3 -6 -6z"/>
<path d="M700 1675 c-7 -9 -8 -15 -2 -15 5 0 12 7 16 15 3 8 4 15 2 15 -2 0
-9 -7 -16 -15z"/>
<path d="M1230 1669 c0 -5 5 -7 10 -4 6 3 10 8 10 11 0 2 -4 4 -10 4 -5 0 -10
-5 -10 -11z"/>
<path d="M1216 1477 c3 -10 9 -15 12 -12 3 3 0 11 -7 18 -10 9 -11 8 -5 -6z"/>
<path d="M1255 1440 c3 -5 11 -10 16 -10 6 0 7 5 4 10 -3 6 -11 10 -16 10 -6
0 -7 -4 -4 -10z"/>
<path d="M5600 1019 c0 -6 -13 -30 -30 -54 -46 -67 -82 -202 -84 -315 -1 -97
17 -190 38 -190 6 0 26 17 46 38 92 101 164 121 348 97 187 -24 172 -16 172
-91 l0 -64 30 0 c29 0 30 2 30 46 l0 46 38 -6 c20 -3 58 -9 85 -12 46 -6 47
-8 47 -40 0 -31 3 -34 30 -34 28 0 30 2 30 40 0 22 3 40 8 40 4 0 17 3 30 6
20 6 22 3 22 -40 0 -42 2 -46 25 -46 23 0 25 3 25 48 0 35 5 54 18 65 26 24
28 22 24 -21 -5 -53 34 -92 93 -92 77 0 118 58 90 127 -17 41 -48 56 -101 50
-32 -3 -52 1 -76 16 -142 86 -575 284 -781 356 -121 42 -157 49 -157 30z
m1058 -461 c18 -18 14 -56 -7 -68 -29 -15 -39 -13 -56 14 -13 19 -14 29 -5 45
12 23 49 28 68 9z"/>
<path d="M2790 1003 c-286 -103 -512 -204 -761 -340 -158 -87 -148 -79 -124
-97 36 -26 137 -50 220 -50 64 0 98 6 170 31 121 42 328 70 396 55 60 -14 149
-69 180 -111 13 -17 28 -31 35 -31 21 0 39 92 38 195 -1 83 -6 115 -32 190
-49 145 -72 176 -122 158z"/>
<path d="M1845 659 c-5 -33 -3 -55 4 -62 8 -8 11 6 11 51 0 34 -2 62 -4 62 -2
0 -7 -23 -11 -51z"/>
<path d="M8147 682 c-23 -25 -21 -68 3 -92 41 -41 110 -13 110 45 0 18 -7 41
-16 49 -21 22 -77 20 -97 -2z m91 -4 c20 -20 14 -65 -10 -82 -30 -21 -44 -20
-68 4 -24 24 -26 53 -4 74 18 19 65 21 82 4z"/>
<path d="M8170 636 c0 -20 5 -36 10 -36 6 0 10 8 10 18 1 16 1 16 11 0 15 -27
24 -22 24 15 0 28 -4 32 -27 35 -26 3 -28 1 -28 -32z m40 14 c0 -5 -4 -10 -10
-10 -5 0 -10 5 -10 10 0 6 5 10 10 10 6 0 10 -4 10 -10z"/>
<path d="M7385 598 c-15 -14 -28 -38 -32 -60 -5 -32 -1 -41 25 -68 24 -24 39
-30 72 -30 53 0 100 42 100 90 0 76 -105 119 -165 68z m104 -50 c10 -28 4 -46
-20 -59 -39 -20 -71 19 -53 65 10 26 63 21 73 -6z"/>
<path d="M7625 608 c-33 -17 -45 -40 -45 -80 0 -56 34 -88 95 -88 35 0 52 6
70 25 74 73 -27 194 -120 143z m87 -63 c10 -22 9 -29 -9 -46 -26 -26 -60 -18
-69 17 -13 52 56 77 78 29z"/>
<path d="M7810 529 c0 -88 0 -89 25 -89 23 0 24 4 27 63 3 59 4 62 31 65 l27
3 0 -65 0 -66 30 0 c29 0 29 1 32 63 3 59 4 62 28 62 24 0 25 -3 28 -62 3 -59
4 -63 27 -63 24 0 25 2 25 74 0 54 -4 79 -16 90 -18 18 -56 21 -85 5 -13 -7
-25 -7 -32 -1 -7 5 -42 10 -79 10 l-68 0 0 -89z"/>
</g>
</svg>
